<svg xmlns="http://www.w3.org/2000/svg" width="54" height="54" fill="none"><g clip-path="url(#a)"><path fill="#fff" d="M53.753 27.005c0 14.773-11.976 26.747-26.753 26.747C12.224 53.752.25 41.778.25 27.005.25 12.233 12.222.25 27 .25c14.777 0 26.752 11.977 26.752 26.756h.001Z"/><path fill="#00AE8E" d="M7.3 26.436c0-10.825 8.78-19.597 19.611-19.597 10.833 0 19.6 8.772 19.6 19.597 0 10.825-8.773 19.607-19.6 19.607-10.826 0-19.61-8.775-19.61-19.607Z"/><path fill="#21409A" d="M7.11 26.147c0-10.834 8.773-19.599 19.598-19.599 8.954 0 16.858 5.49 19.206 13.67-.168.09-.805.65-1.367.65-1.496 0-3.59 1.902-3.59 1.902l-3.914 4.432-7.052 7.118s-.654.135-.724-1.065c-.063-1.202-1-5.427-1-5.427s-.443 1.305-1.708 2.709c-1.287 1.41-7.119 4.711-10.7 4.986-3.572.274-5.457-1.846-5.457-1.846-1.093-1.635-2.11-3.43-2.658-3.727-.431-1.616-.635-2.042-.635-3.802Z"/><path fill="#fff" fill-rule="evenodd" d="M29.78 20.93s-.193-.19-.498.854c-.294 1.041-.338 3.979-.338 3.979.642-.75 1.686-3.486 1.686-4.329 0-.843-.85-.504-.85-.504Zm-4.67 5.647s-.005.016-.022.053c.057.008.347-.067.555.06.3.195.414.737.3.832-.247.174-2.729 1.711-3.314 1.477-.592-.24-2.898-2.54-4.325-3.484-1.414-.95-8.38-3.192-8.676 2.657-.296 5.84 5.728 7.564 9.556 6.26 3.856-1.294 8.1-6.38 8.1-6.38-.05-4.43.362-5.613 1.187-7.298.88-1.789 3.729-1.916 3.253 1.093-.473 3.013-2.84 5.86-2.84 5.86.659 1.586 1.183 5.781 1.183 5.781s6.655-7.78 9.567-10.75c2.84-2.893 5.151-1.894 5.151-1.894-.656.296-.832 2.49-.946 2.84-.117.349-.884 0-.884 0l.112-.763c-1.242-1.834-3.72 1.409-5.02 4.128-1.299 2.72-1.895 8.206-1.895 8.206l1.784.124v.95c-1.597.116-3.612 1.12-3.612 1.12s-.055-.362.058-2.014c.122-1.656 1.416-6.858 1.416-6.858s-2.131 2.254-2.891 3.26c-.762 1.003-4.434 5.194-4.434 5.194l-.588-.586s.523-2.544.413-3.495c-.118-.936-.586-3.18-.586-3.18l-1.477 1.474c-2.253 2.42-5.853 4.193-5.853 4.193C8.988 38.982 6.535 28.78 9.577 25.035c2.998-3.692 7.283-2.232 8.379-1.77 1.308.56 5.671 4.075 6.213 4.14.445.046.815-.593.92-.774-.025-.005-.025-.02.023-.052l-.002-.002Z" clip-rule="evenodd"/><path fill="#fff" d="M53.753 27.005c0 14.773-11.976 26.747-26.753 26.747C12.224 53.752.25 41.778.25 27.005.25 12.233 12.222.25 27 .25c14.777 0 26.752 11.977 26.752 26.756h.001Z"/><path fill="#00B48D" d="M7.3 26.436c0-10.825 8.78-19.597 19.611-19.597 10.833 0 19.6 8.772 19.6 19.597 0 10.825-8.773 19.607-19.6 19.607-10.826 0-19.61-8.775-19.61-19.607Z"/><path fill="#164D92" d="M7.11 26.147c0-10.834 8.773-19.599 19.598-19.599 8.954 0 16.858 5.49 19.206 13.67-.168.09-.805.65-1.367.65-1.496 0-3.59 1.902-3.59 1.902l-3.914 4.432-7.052 7.118s-.654.135-.724-1.065c-.063-1.202-1-5.427-1-5.427s-.443 1.305-1.708 2.709c-1.287 1.41-7.119 4.711-10.7 4.986-3.572.274-5.457-1.846-5.457-1.846-1.093-1.635-2.11-3.43-2.658-3.727-.431-1.616-.635-2.042-.635-3.802Z"/><path fill="#fff" fill-rule="evenodd" d="M29.78 20.93s-.193-.19-.498.854c-.294 1.041-.338 3.979-.338 3.979.642-.75 1.686-3.486 1.686-4.329 0-.843-.85-.504-.85-.504Zm-4.67 5.647s-.005.016-.022.053c.057.008.347-.067.555.06.3.195.414.737.3.832-.247.174-2.729 1.711-3.314 1.477-.592-.24-2.898-2.54-4.325-3.484-1.414-.95-8.38-3.192-8.676 2.657-.296 5.84 5.728 7.564 9.556 6.26 3.856-1.294 8.1-6.38 8.1-6.38-.05-4.43.362-5.613 1.187-7.298.88-1.789 3.729-1.916 3.253 1.093-.473 3.013-2.84 5.86-2.84 5.86.659 1.586 1.183 5.781 1.183 5.781s6.655-7.78 9.567-10.75c2.84-2.893 5.151-1.894 5.151-1.894-.656.296-.832 2.49-.946 2.84-.117.349-.884 0-.884 0l.112-.763c-1.242-1.834-3.72 1.409-5.02 4.128-1.299 2.72-1.895 8.206-1.895 8.206l1.784.124v.95c-1.597.116-3.612 1.12-3.612 1.12s-.055-.362.058-2.014c.122-1.656 1.416-6.858 1.416-6.858s-2.131 2.254-2.891 3.26c-.762 1.003-4.434 5.194-4.434 5.194l-.588-.586s.523-2.544.413-3.495c-.118-.936-.586-3.18-.586-3.18l-1.477 1.474c-2.253 2.42-5.853 4.193-5.853 4.193C8.988 38.982 6.535 28.78 9.577 25.035c2.998-3.692 7.283-2.232 8.379-1.77 1.308.56 5.671 4.075 6.213 4.14.445.046.815-.593.92-.774-.025-.005-.025-.02.023-.052l-.002-.002Z" clip-rule="evenodd"/><path fill="#231F20" d="m15.093 44.717-.576-.064c.022-.184.014-.322-.024-.412a.612.612 0 0 0-.22-.271.627.627 0 0 0-.427-.14.446.446 0 0 0-.35.186c-.119.16-.097.376.067.65l.226.377c.184.305.28.58.286.826.007.245-.074.48-.24.704-.225.299-.512.472-.857.518a1.28 1.28 0 0 1-.97-.267c-.282-.212-.454-.471-.512-.776-.056-.304.007-.624.19-.96l.58.262c-.12.208-.18.37-.178.485-.005.216.091.398.284.543.154.114.319.158.497.132a.669.669 0 0 0 .445-.276.683.683 0 0 0 .104-.194.531.531 0 0 0 .027-.207.791.791 0 0 0-.052-.233 1.66 1.66 0 0 0-.127-.269l-.216-.367c-.305-.522-.322-.965-.05-1.329a.98.98 0 0 1 .742-.403c.31-.026.606.066.883.275.376.281.532.684.47 1.207l-.002.003ZM16.562 44.878l-2.086 3.496-.527-.314 2.086-3.497.527.315ZM15.613 49.063l1.693-4.005 1.525 4.016 1.101-2.605.566.238-1.68 3.978-1.53-4.008-1.109 2.625-.566-.238v-.002ZM24.065 47.736l-.154.71c-.284-.365-.613-.589-.982-.67a1.408 1.408 0 0 0-1.13.216 1.52 1.52 0 0 0-.655.98c-.09.417-.027.8.193 1.148.218.349.533.567.942.656.212.046.398.05.561.014a1.64 1.64 0 0 0 .286-.083c.1-.04.21-.089.325-.15l-.157.723c-.386.12-.767.138-1.146.056a2.04 2.04 0 0 1-1.325-.912 2.021 2.021 0 0 1-.287-1.579c.11-.506.377-.922.797-1.246.518-.396 1.105-.524 1.758-.381.358.077.68.25.973.517h.001ZM26.846 48.276l-1.628-.105-.063.976 1.582.103-.038.576-1.581-.103-.088 1.357 1.628.106-.037.577-2.242-.145.264-4.062 2.24.145-.037.576v-.001ZM30.051 48.027l-.695.107.246-.62.97-.148.614 4.024-.607.092-.528-3.455ZM33.52 51.022l-.528-.197.567-1.544-.124.053a1.147 1.147 0 0 1-1.011-.095 1.259 1.259 0 0 1-.594-.767 1.306 1.306 0 0 1 .116-1.032c.182-.33.452-.548.81-.652a1.354 1.354 0 0 1 1.04.11c.336.176.553.436.653.778.087.304.053.67-.1 1.097l-.83 2.249Zm-1.127-2.759c.062.21.184.367.369.47a.742.742 0 0 0 .587.065.734.734 0 0 0 .46-.367.742.742 0 0 0 .066-.587.746.746 0 0 0-.37-.461.74.74 0 0 0-.586-.065.741.741 0 0 0-.457.366.738.738 0 0 0-.07.578v.001ZM35.815 47.862a1.002 1.002 0 0 1-.765-.597 1.11 1.11 0 0 1-.034-.895c.114-.296.327-.515.636-.656.307-.14.607-.157.904-.05.297.107.513.313.652.615.145.318.129.64-.049.965a.95.95 0 0 1 .511.19c.157.115.278.268.367.46.15.328.165.645.047.952-.118.308-.344.537-.68.69-.342.157-.673.18-.99.07a1.15 1.15 0 0 1-.7-.643c-.19-.416-.155-.783.102-1.102v.001Zm-.242-.84a.596.596 0 0 0 .343.325c.159.06.314.053.467-.017a.585.585 0 0 0 .317-.341.58.58 0 0 0-.016-.465.582.582 0 0 0-.34-.317.588.588 0 0 0-.467.015.586.586 0 0 0-.316.341.577.577 0 0 0 .012.459Zm.68 1.672a.674.674 0 0 0 .9.343.65.65 0 0 0 .351-.379.664.664 0 0 0-.018-.518.655.655 0 0 0-.38-.354.653.653 0 0 0-.516.019.657.657 0 0 0-.352.379.65.65 0 0 0 .017.512l-.002-.002ZM39.06 44.539l-1.693 1.08-.308-.485 2.557-1.632.1 4.93-.578.003-.078-3.896Z"/><path fill="#231F20" d="M27 54C12.113 54 0 41.888 0 27 0 12.114 12.112 0 27 0 41.89 0 54.002 12.112 54.002 27c0 14.889-12.112 27.001-27 27.001V54ZM27 .288C12.272.288.289 12.27.289 27 .288 41.73 12.27 53.714 27 53.714c14.73 0 26.711-11.983 26.711-26.713C53.712 12.27 41.73.288 27.001.288Z"/><path fill="#231F20" d="m6.065 20.739-.368 1.703.87.652-.138.648-3.804-2.883 4.638-.985-.141.657-1.057.209v-.001Zm-.617.122-1.48.299 1.22.911.261-1.208-.001-.002ZM5.08 16.12l.09.572c-.184.027-.315.07-.392.13a.626.626 0 0 0-.205.284.631.631 0 0 0-.022.449.45.45 0 0 0 .27.29c.185.073.388-.004.61-.234l.304-.315c.247-.257.487-.42.724-.492.235-.07.482-.054.742.05.347.14.588.37.723.692.135.325.134.66-.005 1.006-.131.328-.337.56-.616.696-.279.134-.605.156-.978.066l.104-.629c.233.063.405.078.516.047.21-.053.36-.19.45-.416a.645.645 0 0 0-.002-.515.671.671 0 0 0-.383-.357.572.572 0 0 0-.42-.022.834.834 0 0 0-.212.11c-.073.05-.149.114-.227.192l-.298.304c-.425.43-.849.561-1.27.393a.98.98 0 0 1-.581-.61c-.107-.294-.095-.604.035-.926.174-.436.522-.691 1.043-.767v.001ZM6.182 14.005l3.036 1.727-.304.533-3.036-1.727-.462.813-.502-.285 1.229-2.159.501.285-.462.812ZM8.496 10.674l-.985 1.301.78.59.956-1.263.46.348-.957 1.264 1.085.822.985-1.301.46.348-1.355 1.79-3.245-2.456 1.356-1.79.46.347ZM11.498 10.076l2.115.353-.537.527-1.996-.373-.08.079 1.169 1.187-.438.43-2.856-2.902.513-.505c.384-.378.732-.577 1.044-.6.346-.025.649.094.907.357.202.206.317.44.345.704.028.263-.035.51-.187.742l.001.001Zm-.872.203.14-.136c.414-.408.466-.77.153-1.087-.292-.297-.639-.247-1.043.15l-.156.152.906.921ZM15.255 9.169l-2.071-3.503.735-.435c.353-.208.652-.338.896-.39.261-.061.528-.064.802-.005.557.115.994.442 1.312.98.318.537.388 1.085.207 1.64-.09.279-.22.511-.39.7-.155.178-.41.374-.765.584l-.726.429Zm.235-.81.238-.14c.238-.14.42-.283.547-.426.127-.146.22-.314.279-.505.119-.39.067-.777-.16-1.158-.226-.385-.54-.62-.938-.706-.358-.077-.762.018-1.213.284l-.239.141 1.485 2.51ZM18.344 7.328l-.57-4.423 2.326 2.56.372-3.46 2.114 3.91-.598.198-1.148-2.207-.308 2.89-1.947-2.14.362 2.47-.603.202ZM25.362 3.126l1.754-.058-.051-1.592.613-.02.131 4.07-.613.02-.062-1.9-1.755.057.062 1.9-.614.02-.132-4.068.614-.02.051 1.59h.002ZM31.302 2.422l-1.619-.21-.125.97 1.571.203-.073.573-1.572-.202-.174 1.349 1.62.208-.074.572-2.227-.287.52-4.038 2.228.287-.074.573v.002ZM34.092 5.746l-1.668-.502-.72.816-.634-.192 3.177-3.56.612 4.703-.644-.194-.123-1.07Zm-.074-.625-.178-1.5-1.006 1.142 1.184.358ZM37.468 3.816l-1.494 3.158 1.081.512-.247.522-1.636-.775 1.742-3.68.555.263h-.001ZM39.769 5.723l-1.814 2.985-.525-.319 1.814-2.985-.8-.486.3-.495 2.122 1.29-.299.494-.797-.485h-.001ZM41.153 7.906l1.345 1.128 1.023-1.22.471.394-2.615 3.12-.47-.394 1.22-1.458L40.78 8.35l-1.22 1.457-.471-.395 2.615-3.12.47.394-1.022 1.22v.001ZM46.84 11.763l-.559.465c0-.463-.12-.84-.363-1.132a1.404 1.404 0 0 0-1.023-.523 1.521 1.521 0 0 0-1.119.37 1.48 1.48 0 0 0-.554 1.023c-.042.41.073.775.34 1.097.138.165.282.285.433.355.08.042.174.08.277.11.104.032.22.06.35.082l-.57.474a2.23 2.23 0 0 1-.937-.66 2.038 2.038 0 0 1-.485-1.534c.052-.577.301-1.05.745-1.42a2.088 2.088 0 0 1 1.395-.492c.652.006 1.192.266 1.621.78.234.282.384.617.45 1.006v-.001ZM46.304 16.42l-.85-1.522-1.084.087-.323-.577 4.759-.353-2.828 3.807-.329-.587.655-.855Zm.382-.5.914-1.204-1.517.124.603 1.08ZM48.154 18.933 46.941 20.7l-.251-.708 1.182-1.653-.038-.104-1.57.558-.205-.58 3.836-1.36.24.678c.18.508.216.907.105 1.2-.124.323-.36.547-.709.67a1.16 1.16 0 0 1-.784.015 1.104 1.104 0 0 1-.594-.483h.001Zm.185-.877.066.185c.194.548.501.748.92.598.392-.139.494-.476.305-1.008l-.074-.206-1.218.431h.001ZM50.893 22.695l-.314-1.6-.96.187.306 1.555-.566.111-.307-1.555-1.335.262.315 1.602-.567.11-.434-2.204 3.994-.784.434 2.204-.567.111.001.002Z"/></g><defs><clipPath id="a"><path fill="#fff" d="M0 0h54v54H0z"/></clipPath></defs></svg>