<svg xmlns="http://www.w3.org/2000/svg" xml:space="preserve" id="Layer_1" x="0" y="0" style="enable-background:new 0 0 11 13.2" version="1.1" viewBox="0 0 11 13.2"><style>.st0{fill:#31363c}</style><path d="M10.7 3 5.7.1c0-.1-.1-.1-.2-.1s-.2 0-.3.1L.3 3c-.1 0-.2.1-.2.2-.1 0-.1.1-.1.2v3.3c0 2.6 1.8 5 4.8 6.4h1.3c3-1.4 4.8-3.8 4.8-6.4V3.4c0-.1 0-.2-.1-.3.1 0 0-.1-.1-.1zm-.8 3.8c0 2.1-1.5 4.1-4.1 5.3h-.6c-2.6-1.2-4.1-3.2-4.1-5.3v-3l4.4-2.6 4.4 2.6v3z" class="st0"/><path d="M5 4.9V6H3.9c-.2 0-.3.1-.4.2-.1.1-.2.3-.2.4s.1.3.2.4c.1.1.2.2.4.2H5v1.1c0 .1 0 .2.1.3s.2.2.4.2c.1 0 .3-.1.4-.2.1-.1.2-.2.2-.4V7.1h1.1c.1 0 .3-.1.4-.2s.2-.2.2-.4c0-.1-.1-.3-.2-.4-.2 0-.3-.1-.4-.1H6.1V4.9c0-.1-.1-.3-.2-.4-.1 0-.3-.1-.4-.1s-.3.1-.4.2-.1.2-.1.3z" class="st0"/></svg>