<svg xmlns="http://www.w3.org/2000/svg" xml:space="preserve" id="Layer_1" x="0" y="0" style="enable-background:new 0 0 108 37" version="1.1" viewBox="0 0 108 37"><style>.st5{fill:#fff}.st11{fill:#404040}</style><path d="M99.8 1H8.6h91.2zm0 0h.6V.5m-.6.5h.1V.5h.5m0 0H101.3c.6 0 1.2.1 1.8.2m-2.7-.2V1H101.3c.6 0 1.2.1 1.7.2m0-.5-.1.5m.1-.5c.6.1 1.2.3 1.7.6L103 .7zm-.1.5c.5.1 1.1.3 1.6.5m-1.6-.5 1.6.5m0 0c1 .5 1.8 1.3 2.3 2.3.2.5.4 1 .5 1.6.1.6.1 1.1.2 1.7V29.7c0 .6-.1 1.2-.2 1.7s-.3 1.1-.5 1.6c-.3.5-.6.9-1 1.3s-.8.7-1.3 1c-.5.3-1 .4-1.6.5-.6.1-1.1.1-1.7.2H6.8c-.6 0-1.2-.1-1.7-.2s-1.1-.3-1.6-.5-.9-.6-1.3-1-.7-.8-1-1.3c-.3-.5-.4-1-.5-1.6-.1-.6-.1-1.1-.2-1.7V7.3c0-.6.1-1.2.2-1.7.1-.6.2-1.1.5-1.6.2-.5.6-.9 1-1.3s.8-.7 1.3-1c.5-.3 1-.4 1.6-.5.5-.1 1.1-.2 1.7-.2H7l97.5.7zM.7 33.2c.3.5.6 1 1.1 1.5L.7 33.2zm99.7 3.3h.8-.8z" style="fill:#fff;stroke:#ebf2f9"/><path d="M37.9 10.7c-.1.7-.3 1.2-.7 1.5-.4.5-1 .7-1.7.7s-1.2-.2-1.7-.7c-.5-.5-.7-1-.7-1.7s.2-1.3.7-1.7c.5-.5 1-.7 1.7-.7.3 0 .6.1 1 .2.3.1.5.3.7.5l.1-.1-.1-.1-.4.4.1.1.1-.1c-.3-.4-.8-.6-1.4-.6-.5 0-1 .2-1.4.6-.4.4-.6.9-.6 1.4 0 .6.2 1.1.6 1.4.4.4.8.6 1.4.6.6 0 1-.2 1.4-.6.2-.2.4-.6.4-1v-.1h-1.7v-.4h2.2v-.1h-.1c0 .3.1.4.1.5.1-.1.1-.2 0-.4v-.1h-2.5V11h1.8v-.1h-.1c0 .4-.2.7-.4.9-.3.3-.8.5-1.3.5s-.9-.2-1.3-.5-.5-.8-.5-1.3.2-1 .5-1.3c.4-.3.8-.5 1.3-.5s.9.2 1.3.5l.1.1.5-.5.1-.1v-.1c-.2-.2-.5-.4-.8-.6h-1c-.7 0-1.3.2-1.8.7-.5.5-.8 1.1-.8 1.8s.3 1.3.7 1.8c.5.5 1.1.7 1.8.7s1.4-.2 1.8-.7l-.1-.1.1.1c.5-.3.7-.9.6-1.6zM41.6 8.7l-2.3-.1v1.7h2v.4h-2v1.7h2.2v.4h-2.6V8.2h2.6l.1.5.1-.6h-3V13h3V12.2h-2.2v-1.4h2V10h-2V8.8l2.1-.1zM44.2 12.9l-.5-.1V8.7h-1.3v-.5h3.1v.4h-1.3v4.3l.1-4.1h1.3v-.7h-3.5V8.9h1.3V13l.8-.1zM47.9 12.9l.1-4.7h.5v4.6l-.6.1.6.1h.1V8.1H47.8l.1 4.8zM51.3 12.9l-.5-.1V8.7h-1.3v-.5h3.1v.4h-1.3v4.3l.1-4.1h1.3v-.7h-3.5V8.9h1.3V13l.8-.1zM55.8 11.9c.3.4.8.6 1.3.6s1-.2 1.4-.6c.4-.4.6-.9.6-1.4 0-.6-.2-1.1-.6-1.4-.4-.4-.8-.6-1.4-.6-.5 0-1 .2-1.4.6-.4.4-.6.9-.6 1.4.1.6.3 1.1.7 1.4-.3-.4-.5-.8-.5-1.4 0-.5.2-1 .5-1.3.3-.3.7-.5 1.2-.5s.9.2 1.2.5c.3.3.5.8.5 1.3s-.2 1-.5 1.3c-.3.3-.7.5-1.2.5-.4.1-.8-.1-1.2-.4zm3 .4c-.5.4-1.1.6-1.8.6s-1.2-.2-1.7-.7c-.5-.5-.7-1-.7-1.7s.2-1.2.7-1.7c.5-.5 1-.7 1.7-.7s1.2.2 1.7.7c.5.5.7 1 .7 1.7.1.7-.2 1.3-.6 1.8.5-.4.8-1.1.8-1.8s-.2-1.3-.7-1.8c-.5-.5-1.1-.7-1.8-.7s-1.3.3-1.8.7c-.5.5-.7 1.1-.7 1.8s.2 1.3.7 1.8c.5.5 1.1.7 1.8.7.7.1 1.3-.1 1.7-.7zM60.4 12.9l.1-4.7h.6l2.3 3.7h.2V8.2h.4v4.6h-.5L61.1 9h-.2v3.9h-.5l.6.1h.1V9.1L61 9v.1V9h-.1l2.5 3.9H64.2V8.1H63.4v3.8h.1v-.1.1h.1l-2.4-3.8h-.9l.1 4.8z"/><path d="M37.9 10.7c0 .7-.2 1.2-.6 1.6-.5.5-1 .7-1.8.7-.7 0-1.3-.2-1.8-.7-.5-.5-.7-1.1-.7-1.8s.2-1.3.7-1.8c.6-.4 1.2-.7 1.9-.7.3 0 .7.1 1 .2.3.1.6.3.7.5l-.4.4c-.3-.4-.8-.6-1.3-.6s-.9.2-1.3.5c-.4.4-.6.8-.6 1.4 0 .6.2 1 .6 1.4.4.4.8.5 1.3.5s1-.2 1.3-.5c.2-.2.4-.6.4-1h-1.7v-.6h2.3v.5zM41.6 8.7h-2.2v1.5h2v.6h-2v1.5h2.2v.6h-2.8V8.2h2.8v.5zM44.2 12.9h-.6V8.7h-1.3v-.5h3.3v.6h-1.3v4.1zM47.9 12.9V8.2h.6V13h-.6zM51.3 12.9h-.6V8.7h-1.3v-.5h3.3v.6h-1.3v4.1zM55.8 11.9c.4.4.8.5 1.3.5s.9-.2 1.3-.5c.4-.4.5-.8.5-1.4 0-.6-.2-1-.5-1.4-.4-.4-.8-.5-1.3-.5s-.9.2-1.3.5c-.4.4-.5.8-.5 1.4-.1.6.1 1.1.5 1.4zm3 .4c-.5.5-1.1.7-1.8.7s-1.3-.2-1.8-.7c-.5-.5-.7-1.1-.7-1.8s.2-1.3.7-1.8c.6-.4 1.2-.7 1.9-.7s1.3.2 1.8.7c.5.5.7 1.1.7 1.8-.1.7-.3 1.3-.8 1.8zM60.4 12.9V8.2h.7l2.3 3.7V8.2h.6V13h-.6L61 9v3.9h-.6zM85.4 26.5h1.5v-10h-1.5v10zm13.5-6.4-1.7 4.3h-.1l-1.8-4.3h-1.6l2.7 6-1.5 3.4h1.6l4.1-9.4h-1.7zm-8.5 5.2c-.5 0-1.2-.2-1.2-.8 0-.8.8-1.1 1.6-1.1.7 0 1 .1 1.4.3-.1 1-.9 1.6-1.8 1.6zm.2-5.4c-1.1 0-2.2.5-2.7 1.5l1.3.6c.3-.6.8-.7 1.4-.7.8 0 1.6.5 1.6 1.3v.1c-.3-.2-.8-.4-1.6-.4-1.4 0-2.9.8-2.9 2.2 0 1.3 1.2 2.2 2.5 2.2 1 0 1.6-.4 1.9-1h.1v.8h1.4v-3.8c0-1.8-1.3-2.8-3-2.8zm-9.2 1.4h-2.1v-3.4h2.1c1.1 0 1.7.9 1.7 1.7 0 .8-.6 1.7-1.7 1.7zm-.1-4.8h-3.6v10h1.5v-3.8h2.1c1.7 0 3.3-1.2 3.3-3.1 0-1.9-1.6-3.1-3.3-3.1zm-19.4 8.8c-1 0-1.9-.9-1.9-2 0-1.2.9-2.1 1.9-2.1 1 0 1.8.9 1.8 2.1 0 1.2-.8 2-1.8 2zm1.7-4.6c-.4-.4-1-.8-1.8-.8-1.7 0-3.3 1.5-3.3 3.4s1.6 3.4 3.3 3.4c.8 0 1.5-.4 1.8-.8h.1v.5c0 1.3-.7 2-1.8 2-.9 0-1.5-.7-1.7-1.2l-1.3.5c.4.9 1.4 2 3 2 1.7 0 3.2-1 3.2-3.5v-6.1h-1.4v.6zm2.4 5.8h1.5v-10H66v10zm3.7-3.3c0-1.3 1-2 1.8-2 .6 0 1.1.3 1.3.7l-3.1 1.3zm4.7-1.2c-.3-.8-1.1-2.2-2.9-2.2-1.7 0-3.2 1.4-3.2 3.4 0 1.9 1.4 3.4 3.4 3.4 1.6 0 2.5-.9 2.8-1.5l-1.2-.8c-.4.6-.9.9-1.7.9-.8 0-1.3-.3-1.6-1l4.5-1.9-.1-.3zm-36.2-1.1v1.4h3.4c-.1.8-.4 1.4-.8 1.8-.5.5-1.3 1.1-2.7 1.1-2.1 0-3.8-1.7-3.8-3.8s1.7-3.8 3.8-3.8c1.1 0 2 .4 2.6 1l1-1c-.9-.8-2-1.4-3.6-1.4-2.9 0-5.3 2.4-5.3 5.3s2.4 5.3 5.3 5.3c1.6 0 2.8-.5 3.7-1.5 1-.9 1.2-2.3 1.2-3.4 0-.3 0-.6-.1-.9h-4.7zm8.8 4.4c-1 0-1.9-.8-1.9-2.1 0-1.2.9-2.1 1.9-2.1 1 0 1.9.8 1.9 2.1s-.8 2.1-1.9 2.1zm0-5.4c-1.9 0-3.4 1.4-3.4 3.4 0 1.9 1.5 3.4 3.4 3.4s3.4-1.4 3.4-3.4-1.5-3.4-3.4-3.4zm7.5 5.4c-1 0-1.9-.8-1.9-2.1 0-1.2.9-2.1 1.9-2.1 1 0 1.9.8 1.9 2.1s-.9 2.1-1.9 2.1zm0-5.4c-1.9 0-3.4 1.4-3.4 3.4 0 1.9 1.5 3.4 3.4 3.4s3.4-1.4 3.4-3.4-1.6-3.4-3.4-3.4z"/><linearGradient id="SVGID_1_" x1="17.47" x2="4.111" y1="29.499" y2="16.103" gradientTransform="matrix(1 0 0 -1 0 39.001)" gradientUnits="userSpaceOnUse"><stop offset="0" style="stop-color:#00a0ff"/><stop offset=".007" style="stop-color:#00a1ff"/><stop offset=".26" style="stop-color:#00beff"/><stop offset=".512" style="stop-color:#00d2ff"/><stop offset=".76" style="stop-color:#00dfff"/><stop offset="1" style="stop-color:#00e3ff"/></linearGradient><path d="M8.5 28.4c-.3-.3-.5-.7-.5-1.2v.1V9.7v.1c0-.5.2-.9.4-1.2l9.9 9.9-9.8 9.9zM8 9.7v-.1.1zm0-.1zm0 0z" style="fill:url(#SVGID_1_)"/><linearGradient id="SVGID_00000021107331722687209140000007709007183417680821_" x1="27.089" x2="7.774" y1="20.442" y2="20.442" gradientTransform="matrix(1 0 0 -1 0 39.001)" gradientUnits="userSpaceOnUse"><stop offset="0" style="stop-color:#ffe000"/><stop offset=".409" style="stop-color:#ffbd00"/><stop offset=".775" style="stop-color:orange"/><stop offset="1" style="stop-color:#ff9c00"/></linearGradient><path d="m21.7 21.9 4-2.3c.4-.2.6-.5.7-.7-.1.3-.4.5-.7.7l-4 2.3zm0-.1-3.3-3.3 3.3-3.3 4 2.3c.5.3.8.7.8 1 0 .4-.3.7-.8 1l-4 2.3z" style="fill:url(#SVGID_00000021107331722687209140000007709007183417680821_)"/><linearGradient id="SVGID_00000136398543453312912620000003940070153682237368_" x1="19.848" x2="1.732" y1="18.723" y2=".557" gradientTransform="matrix(1 0 0 -1 0 39.001)" gradientUnits="userSpaceOnUse"><stop offset="0" style="stop-color:#ff3a44"/><stop offset="1" style="stop-color:#c31162"/></linearGradient><path d="M9.2 28.7c-.3 0-.5-.1-.7-.3.2.2.4.3.7.3zm0-.1c-.3 0-.5-.1-.7-.3l9.9-9.9 3.3 3.3-11.6 6.6c-.4.2-.7.3-.9.3zm-.7-.1s-.1-.1 0 0z" style="fill:url(#SVGID_00000136398543453312912620000003940070153682237368_)"/><linearGradient id="SVGID_00000132775763631007329670000000184289196860437650_" x1="5.931" x2="14.02" y1="36.306" y2="28.194" gradientTransform="matrix(1 0 0 -1 0 39.001)" gradientUnits="userSpaceOnUse"><stop offset="0" style="stop-color:#32a071"/><stop offset=".069" style="stop-color:#2da771"/><stop offset=".476" style="stop-color:#15cf74"/><stop offset=".801" style="stop-color:#06e775"/><stop offset="1" style="stop-color:#00f076"/></linearGradient><path d="M18.4 18.5 8.5 8.6c.2-.2.4-.3.7-.3.3 0 .6.1.9.3l11.6 6.6-3.3 3.3zm3.3-3.4L10.1 8.5c-.4-.1-.7-.2-.9-.2.3 0 .6.1.9.3l11.6 6.5z" style="fill:url(#SVGID_00000132775763631007329670000000184289196860437650_)"/><path d="M9.2 28.7c.3 0 .5-.1.8-.3l11.6-6.6L10 28.4c-.2.2-.5.3-.8.3zm-.7-.2zm-.1-.1z" class="st5"/><linearGradient id="SVGID_00000070096994176659143060000018177992759432062595_" x1="27.087" x2="7.773" y1="17.116" y2="17.116" gradientTransform="matrix(1 0 0 -1 0 39.001)" gradientUnits="userSpaceOnUse"><stop offset="0" style="stop-color:#ccb300"/><stop offset=".409" style="stop-color:#cc9700"/><stop offset=".775" style="stop-color:#cc8400"/><stop offset="1" style="stop-color:#cc7d00"/></linearGradient><path d="M21.7 21.9z" style="fill:url(#SVGID_00000070096994176659143060000018177992759432062595_)"/><linearGradient id="SVGID_00000098916439484633905770000006523465039823153086_" x1="19.884" x2="1.769" y1="18.686" y2=".52" gradientTransform="matrix(1 0 0 -1 0 39.001)" gradientUnits="userSpaceOnUse"><stop offset="0" style="stop-color:#cc2e36"/><stop offset="1" style="stop-color:#9c0e4e"/></linearGradient><path d="M9.2 28.7c-.3 0-.5-.1-.7-.3l-.1-.1.1-.1c.2.2.4.3.7.3.3 0 .6-.1.9-.3l11.6-6.6.1.1h-.1l-11.6 6.6c-.3.3-.6.4-.9.4z" style="fill:url(#SVGID_00000098916439484633905770000006523465039823153086_)"/><path d="M8.4 28.4c-.2-.2-.4-.6-.4-1.1 0 .5.2.9.4 1.1z" class="st5"/><linearGradient id="SVGID_00000016782540821636801430000013895223644341349528_" x1="21.987" x2="8.628" y1="24.995" y2="11.599" gradientTransform="matrix(1 0 0 -1 0 39.001)" gradientUnits="userSpaceOnUse"><stop offset="0" style="stop-color:#008de0"/><stop offset=".007" style="stop-color:#008de0"/><stop offset=".26" style="stop-color:#00a7e0"/><stop offset=".512" style="stop-color:#00b8e0"/><stop offset=".76" style="stop-color:#00c4e0"/><stop offset="1" style="stop-color:#00c7e0"/></linearGradient><path d="M8.4 28.4c-.2-.2-.4-.6-.4-1.1v-.1c0 .5.1.9.4 1.1v.1z" style="fill:url(#SVGID_00000016782540821636801430000013895223644341349528_)"/><linearGradient id="SVGID_00000103231181830953356570000018109653187446479010_" x1="18.185" x2=".069" y1="20.381" y2="2.214" gradientTransform="matrix(1 0 0 -1 0 39.001)" gradientUnits="userSpaceOnUse"><stop offset="0" style="stop-color:#e0333c"/><stop offset="1" style="stop-color:#ab0f56"/></linearGradient><path d="M8.4 28.4z" style="fill:url(#SVGID_00000103231181830953356570000018109653187446479010_)"/><path d="M26.4 18.9c.1-.1.1-.3.1-.4 0 .1-.1.3-.1.4z" class="st5"/><linearGradient id="SVGID_00000070106491271215297890000001636641194258732727_" x1="27.089" x2="7.774" y1="18.818" y2="18.818" gradientTransform="matrix(1 0 0 -1 0 39.001)" gradientUnits="userSpaceOnUse"><stop offset="0" style="stop-color:#e0c500"/><stop offset=".409" style="stop-color:#e0a600"/><stop offset=".775" style="stop-color:#e09100"/><stop offset="1" style="stop-color:#e08900"/></linearGradient><path d="m21.7 21.9 3.9-2.3c.5-.3.8-.7.8-1 0 .1 0 .3-.1.4-.1.3-.4.5-.7.7l-3.9 2.2z" style="fill:url(#SVGID_00000070106491271215297890000001636641194258732727_)"/><path d="M26.5 18.5c0-.4-.3-.8-.8-1.1l-3.9-2.2 3.9 2.2c.5.3.8.7.8 1.1z" class="st11"/><linearGradient id="SVGID_00000042705103158511795240000010285842264806182286_" x1="27.089" x2="7.774" y1="22.181" y2="22.181" gradientTransform="matrix(1 0 0 -1 0 39.001)" gradientUnits="userSpaceOnUse"><stop offset="0" style="stop-color:#ffe840"/><stop offset=".409" style="stop-color:#ffce40"/><stop offset=".775" style="stop-color:#ffbc40"/><stop offset="1" style="stop-color:#ffb540"/></linearGradient><path d="M26.5 18.5c0-.4-.3-.7-.8-1l-4-2.3.1-.1 3.9 2.2c.5.4.8.8.8 1.2z" style="fill:url(#SVGID_00000042705103158511795240000010285842264806182286_)"/><path d="M8 9.7zm0-.1zm0 0zm0 0c0-.8.5-1.3 1.1-1.3-.3 0-.5.1-.7.3l-.1.1c-.1.1-.2.4-.3.9z" class="st11"/><linearGradient id="SVGID_00000137114187676520397930000007134217325049264018_" x1="12.683" x2="-.676" y1="34.273" y2="20.877" gradientTransform="matrix(1 0 0 -1 0 39.001)" gradientUnits="userSpaceOnUse"><stop offset="0" style="stop-color:#40b8ff"/><stop offset=".007" style="stop-color:#40b9ff"/><stop offset=".26" style="stop-color:#40ceff"/><stop offset=".512" style="stop-color:#40ddff"/><stop offset=".76" style="stop-color:#40e7ff"/><stop offset="1" style="stop-color:#40eaff"/></linearGradient><path d="M8 9.8v-.2c0-.4.2-.8.4-1l.1.1c-.3.2-.5.6-.5 1.1zm.5-1.3z" style="fill:url(#SVGID_00000137114187676520397930000007134217325049264018_)"/></svg>