<svg width="48" height="48" viewBox="0 0 48 48" fill="none" xmlns="http://www.w3.org/2000/svg">
<circle cx="24" cy="24" r="24" fill="white"/>
<g clip-path="url(#clip0_22391_216187)">
<path d="M32.7273 33.3437C32.7273 33.633 32.6123 33.9105 32.4078 34.1151C32.2032 34.3196 31.9257 34.4346 31.6364 34.4346H16.3636C16.0743 34.4346 15.7968 34.3196 15.5922 34.1151C15.3877 33.9105 15.2727 33.633 15.2727 33.3437V23.5255H12L23.2658 13.284C23.4667 13.1013 23.7285 13 24 13C24.2715 13 24.5333 13.1013 24.7342 13.284L36 23.5255H32.7273V33.3437ZM24 30.0709L27.6644 26.4066C27.8923 26.1786 28.0731 25.9081 28.1964 25.6103C28.3198 25.3125 28.3833 24.9933 28.3833 24.6709C28.3833 24.3486 28.3198 24.0294 28.1964 23.7316C28.0731 23.4338 27.8923 23.1632 27.6644 22.9353C27.4364 22.7074 27.1658 22.5266 26.868 22.4032C26.5702 22.2799 26.2511 22.2164 25.9287 22.2164C25.6064 22.2164 25.2872 22.2799 24.9894 22.4032C24.6916 22.5266 24.421 22.7074 24.1931 22.9353L24 23.1284L23.8069 22.9353C23.579 22.7074 23.3084 22.5266 23.0106 22.4032C22.7128 22.2799 22.3936 22.2164 22.0713 22.2164C21.7489 22.2164 21.4298 22.2799 21.132 22.4032C20.8342 22.5266 20.5636 22.7074 20.3356 22.9353C20.1077 23.1632 19.9269 23.4338 19.8036 23.7316C19.6802 24.0294 19.6167 24.3486 19.6167 24.6709C19.6167 24.9933 19.6802 25.3125 19.8036 25.6103C19.9269 25.9081 20.1077 26.1786 20.3356 26.4066L24 30.0709Z" fill="#2C3E70"/>
</g>
<defs>
<clipPath id="clip0_22391_216187">
<rect width="24" height="24" fill="white" transform="translate(12 12)"/>
</clipPath>
</defs>
</svg>
