<svg width="19" height="18" viewBox="0 0 19 18" fill="none" xmlns="http://www.w3.org/2000/svg">
<path d="M14.3438 12.75C14.1977 12.7503 14.0562 12.6994 13.9438 12.6063L11.1188 10.25H9.96875C8.64267 10.25 7.3709 9.72322 6.43322 8.78553C5.49553 7.84785 4.96875 6.57608 4.96875 5.25C4.96875 3.92392 5.49553 2.65215 6.43322 1.71447C7.3709 0.776784 8.64267 0.25 9.96875 0.25H13.7188C14.9332 0.253468 16.1049 0.698838 17.015 1.50295C17.9252 2.30706 18.5115 3.41494 18.6646 4.61972C18.8177 5.8245 18.527 7.04382 17.8469 8.04999C17.1668 9.05617 16.1438 9.78042 14.9688 10.0875V12.125C14.969 12.2445 14.9351 12.3617 14.8708 12.4625C14.8066 12.5633 14.7147 12.6435 14.6063 12.6938C14.5239 12.7313 14.4343 12.7505 14.3438 12.75V12.75ZM9.96875 1.5C8.97419 1.5 8.02036 1.89509 7.3171 2.59835C6.61384 3.30161 6.21875 4.25544 6.21875 5.25C6.21875 6.24456 6.61384 7.19839 7.3171 7.90165C8.02036 8.60491 8.97419 9 9.96875 9H11.3438C11.4898 8.99972 11.6313 9.05057 11.7438 9.14375L13.7188 10.7875V9.575C13.7173 9.42334 13.771 9.27632 13.8699 9.16133C13.9687 9.04634 14.1061 8.97123 14.2563 8.95C15.1799 8.79863 16.0135 8.30735 16.5934 7.57267C17.1732 6.838 17.4574 5.91303 17.3901 4.97951C17.3227 4.046 16.9087 3.1714 16.2294 2.52757C15.5501 1.88374 14.6545 1.51721 13.7188 1.5H9.96875Z" fill="#1976D2"/>
<path d="M4.33781 17.7502C4.24727 17.7507 4.15771 17.7315 4.07531 17.694C3.96683 17.6437 3.87501 17.5635 3.81076 17.4627C3.74651 17.3619 3.71252 17.2447 3.71281 17.1252V15.0877C2.71836 14.8228 1.82988 14.2574 1.16864 13.4688C0.507401 12.6802 0.105612 11.7068 0.0181095 10.6813C-0.0693927 9.65593 0.161655 8.6285 0.679719 7.73926C1.19778 6.85002 1.97763 6.1423 2.91281 5.7127C2.98829 5.67292 3.07112 5.64902 3.15619 5.64247C3.24126 5.63592 3.32677 5.64685 3.40745 5.6746C3.48814 5.70235 3.56228 5.74632 3.62533 5.80381C3.68837 5.86131 3.73898 5.9311 3.77402 6.00889C3.80907 6.08668 3.82782 6.17082 3.82912 6.25613C3.83041 6.34144 3.81423 6.42612 3.78156 6.50494C3.74889 6.58375 3.70043 6.65505 3.63916 6.71443C3.57789 6.77381 3.50512 6.82002 3.42531 6.8502C2.68777 7.18461 2.07829 7.74879 1.68803 8.45837C1.29777 9.16794 1.1477 9.98479 1.26025 10.7867C1.37281 11.5887 1.74194 12.3327 2.31246 12.9074C2.88297 13.4821 3.62421 13.8567 4.42531 13.9752C4.57549 13.9964 4.71282 14.0715 4.81171 14.1865C4.9106 14.3015 4.96431 14.4485 4.96281 14.6002V15.8127L6.93781 14.169C7.0467 14.0667 7.1886 14.0068 7.33781 14.0002H8.71281C9.21333 14.0011 9.70887 13.9008 10.1696 13.7054C10.6304 13.5099 11.0469 13.2233 11.3941 12.8627C11.5101 12.7434 11.6688 12.675 11.8352 12.6726C11.9176 12.6715 11.9995 12.6866 12.0761 12.717C12.1526 12.7475 12.2225 12.7927 12.2816 12.8502C12.3407 12.9077 12.3879 12.9762 12.4205 13.0519C12.4531 13.1276 12.4705 13.209 12.4716 13.2914C12.4728 13.3738 12.4577 13.4556 12.4272 13.5322C12.3968 13.6088 12.3515 13.6786 12.2941 13.7377C11.8284 14.2162 11.2715 14.5965 10.6565 14.8563C10.0414 15.116 9.3805 15.25 8.71281 15.2502H7.56281L4.73781 17.6065C4.62537 17.6996 4.48385 17.7505 4.33781 17.7502V17.7502Z" fill="#1976D2"/>
</svg>

