<svg width="108" height="36" viewBox="0 0 108 36" fill="none" xmlns="http://www.w3.org/2000/svg">
<path d="M99.7924 0.500117H99.3996H8.6053H99.7924ZM99.7924 0.500117C99.9873 0.500291 100.182 0.500722 100.375 0.501792L100.378 0.00179999M99.7924 0.500117H99.8996V0.000240239C100.059 0.000470096 100.219 0.000919875 100.378 0.00179999M100.378 0.00179999C100.602 0.00323258 100.832 0.00700999 101.058 0.0107384C101.109 0.0115775 101.159 0.0124141 101.21 0.013221C101.815 0.0199239 102.418 0.0731093 103.015 0.172304M100.378 0.00179999L100.375 0.50179C100.596 0.503205 100.822 0.50693 101.049 0.510655C101.1 0.511498 101.151 0.512341 101.202 0.513163L101.204 0.51319C101.783 0.519606 102.361 0.570483 102.932 0.66537M103.015 0.172304L102.931 0.66526C102.932 0.665297 102.932 0.665334 102.932 0.66537M103.015 0.172304C103.614 0.273932 104.194 0.464126 104.737 0.736603L103.015 0.172304ZM102.932 0.66537C103.481 0.758612 104.013 0.932915 104.511 1.18252M102.932 0.66537L104.511 1.18252M104.511 1.18252C105.502 1.69056 106.309 2.49512 106.818 3.48309C107.067 3.97679 107.239 4.50533 107.329 5.0506L107.329 5.05271C107.425 5.62301 107.479 6.19966 107.489 6.7779C107.493 7.05005 107.493 7.32362 107.493 7.6L107.493 7.61078C107.5 7.93055 107.5 8.2521 107.5 8.58261V27.4183C107.5 27.7515 107.5 28.0713 107.493 28.392L107.493 28.392V28.4028C107.493 28.6825 107.493 28.9499 107.489 29.2256C107.479 29.8039 107.425 30.3805 107.329 30.9509L107.329 30.9532C107.239 31.4986 107.067 32.0272 106.818 32.5208C106.565 33.0105 106.237 33.4575 105.845 33.8456L105.842 33.8484C105.454 34.2394 105.005 34.5658 104.512 34.8151C104.014 35.0659 103.482 35.2415 102.932 35.3364C102.36 35.4305 101.783 35.4814 101.204 35.4886L101.199 35.4887C100.927 35.4947 100.649 35.4982 100.378 35.4982L100.375 35.4982C100.052 35.5 99.7242 35.5 99.3996 35.5H8.6053C8.27414 35.5 7.94849 35.5 7.62001 35.4982H7.61728C7.34523 35.4982 7.07483 35.4947 6.79887 35.4887L6.79447 35.4886C6.21397 35.481 5.63486 35.4301 5.06198 35.3363C4.51474 35.2422 3.9848 35.0668 3.48986 34.8158L3.4893 34.8155C2.99622 34.5663 2.54655 34.2397 2.15744 33.8483L2.15351 33.8445C1.76119 33.4585 1.43423 33.0118 1.18528 32.5216L1.18505 32.5212C0.933645 32.0274 0.759498 31.4983 0.668628 30.9521L0.668436 30.951C0.57226 30.381 0.520506 29.8045 0.513638 29.2265L0.51372 29.2265L0.513449 29.2175C0.507862 29.031 0.505731 28.8517 0.503521 28.6659C0.502486 28.5788 0.501433 28.4902 0.5 28.3988V7.60398C0.501454 7.5124 0.502516 7.42284 0.503563 7.33445C0.505757 7.14933 0.507891 6.96931 0.513443 6.7864L0.513528 6.7864L0.513638 6.77717C0.520504 6.1992 0.572258 5.62263 0.668437 5.05262L0.668582 5.05176C0.759722 4.50579 0.933892 3.97686 1.1851 3.48322L1.18554 3.48237C1.43479 2.99024 1.76197 2.54132 2.15454 2.15289L2.15454 2.1529L2.15596 2.15148C2.5473 1.76113 2.99748 1.43416 3.49022 1.18245C3.98498 0.932348 4.51478 0.758081 5.06173 0.665549C5.63436 0.571016 6.21338 0.520123 6.79377 0.513317L6.79579 0.513285C6.85449 0.512359 6.91271 0.511401 6.97058 0.510449L104.511 1.18252ZM0.739485 32.748C1.01293 33.2864 1.37204 33.7771 1.80286 34.2009L0.739485 32.748ZM100.378 35.9982C100.653 35.9982 100.935 35.9947 101.21 35.9886L100.378 35.9982Z" fill="white" stroke="#EBF2F9"/>
<path d="M40.0561 23.0301H36.3083L35.3913 25.5371H33.7441L37.4145 16.1733H38.9715L42.7256 25.5371H40.9933L40.0561 23.0301ZM36.7807 21.7576H39.5785L38.5765 19.0753C38.4393 18.7045 38.3035 18.2955 38.1688 17.8472C38.0482 18.2434 37.9174 18.6486 37.7751 19.0626L36.7807 21.7576Z" fill="black"/>
<path d="M43.4681 20.2717C43.4681 19.7548 43.4503 19.1858 43.416 18.5661H44.9146C44.9705 18.8544 45.0086 19.1503 45.0315 19.4513C45.6512 18.7743 46.3624 18.4365 47.1638 18.4365C47.6286 18.4365 48.0604 18.5534 48.4554 18.7883C48.8516 19.0233 49.1717 19.3941 49.4155 19.8996C49.6594 20.4063 49.7813 21.0489 49.7813 21.8287C49.7813 22.6085 49.6416 23.3387 49.3635 23.9166C49.0866 24.4944 48.6967 24.9313 48.1976 25.2285C47.6985 25.5257 47.1206 25.6743 46.4653 25.6743C45.9916 25.6743 45.5242 25.5943 45.0632 25.4355V28.3172L43.4668 28.4531V20.2717H43.4681ZM47.6655 23.8353C47.9906 23.3984 48.1531 22.7596 48.1531 21.9189C48.1531 21.1391 48.0185 20.5739 47.7493 20.2222C47.48 19.8716 47.1219 19.6951 46.6736 19.6951C46.3637 19.6951 46.0767 19.7688 45.8138 19.9148C45.5509 20.0609 45.3007 20.2577 45.0645 20.5028V24.2379C45.2232 24.3154 45.4087 24.3763 45.6195 24.4221C45.8303 24.4678 46.0398 24.4894 46.2469 24.4894C46.8666 24.4894 47.3391 24.2709 47.6655 23.834V23.8353Z" fill="black"/>
<path d="M50.8021 20.2717C50.8021 19.7548 50.7843 19.1858 50.75 18.5661H52.2486C52.3045 18.8544 52.3426 19.1503 52.3654 19.4513C52.9852 18.7743 53.6964 18.4365 54.4978 18.4365C54.9626 18.4365 55.3944 18.5534 55.7894 18.7883C56.1856 19.0233 56.5057 19.3941 56.7495 19.8996C56.9933 20.4063 57.1153 21.0489 57.1153 21.8287C57.1153 22.6085 56.9756 23.3387 56.6974 23.9166C56.4206 24.4944 56.0307 24.9313 55.5316 25.2285C55.0325 25.5257 54.4546 25.6743 53.7993 25.6743C53.3256 25.6743 52.8582 25.5943 52.3972 25.4355V28.3172L50.8008 28.4531V20.2717H50.8021ZM54.9994 23.8353C55.3246 23.3984 55.4871 22.7596 55.4871 21.9189C55.4871 21.1391 55.3525 20.5739 55.0833 20.2222C54.814 19.8716 54.4559 19.6951 54.0076 19.6951C53.6977 19.6951 53.4107 19.7688 53.1478 19.9148C52.8849 20.0609 52.6347 20.2577 52.3985 20.5028V24.2379C52.5572 24.3154 52.7426 24.3763 52.9535 24.4221C53.1643 24.4678 53.3738 24.4894 53.5808 24.4894C54.2006 24.4894 54.673 24.2709 54.9994 23.834V23.8353Z" fill="black"/>
<path d="M60.1275 25.0952C59.4379 24.7142 58.9083 24.1681 58.5374 23.4569C58.1666 22.7457 57.9824 21.9062 57.9824 20.9372C57.9824 19.8856 58.1958 18.9928 58.6212 18.2587C59.048 17.5247 59.6283 16.9735 60.3637 16.6052C61.0977 16.2369 61.922 16.0527 62.8351 16.0527C63.3736 16.0527 63.8867 16.1124 64.3756 16.2305C64.8646 16.3486 65.3205 16.5112 65.7422 16.7182L65.3345 17.9463C64.4861 17.5412 63.6759 17.3392 62.905 17.3392C62.2547 17.3392 61.6845 17.4777 61.1955 17.7558C60.7066 18.0339 60.3269 18.4416 60.0551 18.9801C59.7846 19.5186 59.6474 20.1688 59.6474 20.9321C59.6474 21.6001 59.7515 22.1919 59.9611 22.7088C60.1694 23.2257 60.4996 23.6347 60.9492 23.9369C61.3987 24.2392 61.9664 24.389 62.6522 24.389C62.9621 24.389 63.2733 24.3636 63.5831 24.3116C63.893 24.2595 64.1839 24.1846 64.4556 24.0855V22.1919H62.2916V20.9511H66.0076V24.8932C65.4729 25.1434 64.9116 25.3352 64.3248 25.4686C63.7368 25.6019 63.1526 25.6692 62.5697 25.6692C61.6299 25.6692 60.8171 25.4787 60.1275 25.0977V25.0952Z" fill="black"/>
<path d="M71.7594 25.5382C71.7035 25.2664 71.6667 24.9591 71.6502 24.6136C71.4051 24.907 71.085 25.1559 70.6901 25.3604C70.2964 25.5649 69.8519 25.6677 69.3553 25.6677C68.954 25.6677 68.5895 25.589 68.2593 25.4315C67.9304 25.274 67.6687 25.0378 67.4744 24.7203C67.2801 24.4041 67.1836 24.0167 67.1836 23.5608C67.1836 22.8839 67.4274 22.3454 67.9138 21.9415C68.4003 21.539 69.2118 21.337 70.3497 21.337C70.7764 21.337 71.1981 21.3675 71.6159 21.4272V21.2913C71.6159 20.6753 71.4851 20.241 71.2209 19.9895C70.958 19.7381 70.5821 19.6111 70.0906 19.6111C69.7503 19.6111 69.3858 19.6606 68.9984 19.7597C68.6111 19.8587 68.2707 19.9768 67.9773 20.1153L67.7259 18.9519C68.0104 18.8224 68.385 18.7043 68.8511 18.5963C69.3159 18.4884 69.8074 18.4351 70.3243 18.4351C70.9276 18.4351 71.4394 18.5265 71.8623 18.7094C72.2852 18.8923 72.6141 19.2072 72.8504 19.653C73.0878 20.0988 73.206 20.6995 73.206 21.4526V24.225C73.206 24.5133 73.2225 24.9515 73.258 25.5369H71.7582L71.7594 25.5382ZM70.8031 24.2453C71.1346 24.0866 71.4064 23.8885 71.6172 23.651V22.3581C71.1816 22.3111 70.8272 22.287 70.5504 22.287C69.8912 22.287 69.4353 22.3937 69.1839 22.607C68.9324 22.8204 68.8054 23.1074 68.8054 23.4694C68.8054 23.8313 68.8968 24.0701 69.0797 24.2352C69.2626 24.4015 69.5115 24.4841 69.8265 24.4841C70.1414 24.4841 70.4704 24.4041 70.8018 24.2453H70.8031Z" fill="black"/>
<path d="M74.6035 23.8645V15.6247L76.1923 15.4951V23.5787C76.1923 23.8759 76.2431 24.0854 76.3447 24.2086C76.4463 24.3318 76.6063 24.3928 76.826 24.3928C76.9251 24.3928 77.0648 24.3686 77.2464 24.3217L77.4344 25.4659C77.2832 25.5269 77.0991 25.5752 76.8819 25.6107C76.6647 25.6475 76.459 25.6653 76.2647 25.6653C75.1572 25.6653 74.6048 25.0646 74.6048 23.8619L74.6035 23.8645Z" fill="black"/>
<path d="M78.5781 23.8645V15.6247L80.1669 15.4951V23.5787C80.1669 23.8759 80.2177 24.0854 80.3193 24.2086C80.4209 24.3318 80.5809 24.3928 80.8006 24.3928C80.8997 24.3928 81.0394 24.3686 81.221 24.3217L81.409 25.4659C81.2578 25.5269 81.0737 25.5752 80.8565 25.6107C80.6393 25.6475 80.4336 25.6653 80.2393 25.6653C79.1318 25.6653 78.5794 25.0646 78.5794 23.8619L78.5781 23.8645Z" fill="black"/>
<path d="M88.0264 22.2554H83.4646C83.5382 23.7159 84.2342 24.4462 85.5525 24.4462C85.8801 24.4462 86.2141 24.4068 86.557 24.3268C86.8999 24.2468 87.2276 24.1401 87.5425 24.0068L87.8918 25.099C87.112 25.4774 86.2357 25.6679 85.2616 25.6679C84.5212 25.6679 83.8964 25.5282 83.3871 25.2476C82.8791 24.9669 82.4968 24.5643 82.2403 24.0385C81.9837 23.5127 81.8555 22.8803 81.8555 22.1386C81.8555 21.3969 81.9914 20.7048 82.2631 20.1485C82.5349 19.5922 82.9121 19.168 83.3972 18.8759C83.8811 18.5826 84.4412 18.4365 85.0737 18.4365C85.7061 18.4365 86.284 18.5902 86.7247 18.8988C87.1654 19.2074 87.493 19.6176 87.7064 20.1294C87.9197 20.6425 88.0264 21.2089 88.0264 21.8287V22.2554ZM86.4694 21.2407C86.4402 20.6844 86.2992 20.2679 86.049 19.9897C85.7988 19.7116 85.4648 19.5732 85.047 19.5732C84.6292 19.5732 84.3053 19.7129 84.0361 19.9935C83.7668 20.2742 83.5916 20.6895 83.509 21.2407H86.4681H86.4694Z" fill="black"/>
<path d="M89.3118 20.3159C89.3118 19.9324 89.2941 19.3482 89.2598 18.5646H90.752C90.7787 18.7589 90.8028 18.99 90.8269 19.2593C90.8498 19.5285 90.8663 19.747 90.8752 19.9146C91.0606 19.6085 91.2422 19.352 91.4213 19.1425C91.6004 18.9342 91.8099 18.7627 92.0487 18.6319C92.2875 18.4998 92.5605 18.4351 92.8653 18.4351C93.1104 18.4351 93.3225 18.4605 93.499 18.5125L93.2984 19.8956C93.1434 19.8486 92.9707 19.8244 92.7815 19.8244C92.4068 19.8244 92.0792 19.921 91.7998 20.1115C91.5191 20.3032 91.2207 20.6182 90.9019 21.0576V25.5357H89.3118V20.3147V20.3159Z" fill="black"/>
<path d="M94.4562 28.3907C94.2238 28.35 94.032 28.303 93.8809 28.2522L94.1717 27.0889C94.2796 27.1194 94.4155 27.1473 94.5794 27.1766C94.7432 27.2045 94.8981 27.2185 95.0442 27.2185C95.7503 27.2185 96.2799 26.7638 96.6342 25.8545L96.7371 25.5967L94.1653 18.5659H95.8773L97.1702 22.4953C97.381 23.1671 97.5169 23.6828 97.5779 24.0396C97.6985 23.5354 97.8407 23.0313 98.0046 22.5271L99.3165 18.5659H100.926L98.3602 25.6284C98.1189 26.2964 97.8585 26.8349 97.5779 27.2439C97.2972 27.6528 96.967 27.9563 96.586 28.1545C96.2037 28.3526 95.744 28.4516 95.2067 28.4516C94.9388 28.4516 94.6899 28.4313 94.4574 28.3907H94.4562Z" fill="black"/>
<path d="M33.7356 7.06592H36.6135L36.5322 7.76061H34.5777V9.10682H36.4204V9.75833H34.5777V11.2493H36.6363L36.5652 11.9516H33.7344V7.06592H33.7356Z" fill="black"/>
<path d="M38.5985 9.45861L37.0795 7.06592H38.0384L39.0671 8.82361L40.1504 7.06592H41.0826L39.5776 9.42813L41.2071 11.9516H40.2355L39.0709 10.0288L37.886 11.9516H36.9551L38.5985 9.45734V9.45861Z" fill="black"/>
<path d="M41.8274 7.06592H43.1432C43.7617 7.06592 44.2354 7.19165 44.563 7.44438C44.892 7.69584 45.0558 8.06033 45.0558 8.53785C45.0558 8.86171 44.9821 9.14492 44.8348 9.38622C44.6875 9.62752 44.4818 9.81294 44.2189 9.94248C43.956 10.072 43.6524 10.1368 43.3108 10.1368C43.1241 10.1368 42.9108 10.1139 42.6695 10.0695V11.9529H41.8262V7.06592H41.8274ZM43.9433 9.24779C44.1236 9.08523 44.2138 8.85409 44.2138 8.55817C44.2138 8.26226 44.1223 8.04001 43.9395 7.90666C43.7566 7.77458 43.4861 7.70727 43.1305 7.70727H42.672V9.4421C42.8841 9.47639 43.0454 9.4929 43.1584 9.4929C43.5026 9.4929 43.7655 9.41162 43.9445 9.24779H43.9433Z" fill="black"/>
<path d="M45.8906 7.06592H46.7339V11.2303H48.7558L48.6846 11.9529H45.8906V7.06592Z" fill="black"/>
<path d="M50.0379 11.713C49.6798 11.5085 49.4067 11.2202 49.2188 10.8507C49.0295 10.4811 48.9355 10.0506 48.9355 9.56033C48.9355 9.04471 49.0371 8.59513 49.2378 8.20905C49.4385 7.82296 49.7293 7.52578 50.109 7.31496C50.4875 7.10414 50.9345 7 51.4502 7C51.9658 7 52.3671 7.1016 52.7227 7.3048C53.0783 7.508 53.3488 7.79502 53.5355 8.16332C53.7222 8.5329 53.8162 8.95962 53.8162 9.44603C53.8162 9.97054 53.7146 10.4265 53.5114 10.8126C53.3082 11.1999 53.0173 11.4971 52.6402 11.7066C52.263 11.9162 51.821 12.0203 51.313 12.0203C50.805 12.0203 50.3986 11.9175 50.0405 11.713H50.0379ZM52.2249 11.1135C52.4611 10.9548 52.6376 10.7364 52.7545 10.4595C52.8713 10.1814 52.9297 9.86386 52.9297 9.50572C52.9297 9.14758 52.8776 8.84151 52.7748 8.56719C52.6706 8.29287 52.5055 8.07442 52.2795 7.91059C52.0521 7.74803 51.76 7.66548 51.4019 7.66548C51.0438 7.66548 50.7694 7.74803 50.5307 7.91313C50.2919 8.07823 50.1128 8.30049 49.9947 8.57735C49.8754 8.85548 49.8157 9.16155 49.8157 9.49683C49.8157 9.84989 49.8715 10.1661 49.9846 10.4455C50.0963 10.7249 50.2691 10.9446 50.5002 11.1072C50.7313 11.2685 51.0184 11.3498 51.3613 11.3498C51.7042 11.3498 51.9886 11.271 52.2249 11.1123V11.1135Z" fill="black"/>
<path d="M54.7559 7.06592H56.2849C56.8425 7.06592 57.2654 7.17768 57.5524 7.39993C57.8394 7.62218 57.9829 7.94095 57.9829 8.35497C57.9829 8.61405 57.9309 8.84139 57.828 9.03824C57.7239 9.23509 57.5969 9.39511 57.4432 9.51957C57.2895 9.64403 57.1333 9.73547 56.9707 9.79643L58.4732 11.9529H57.494L56.2214 10.0161H55.6004V11.9529H54.7571V7.06592H54.7559ZM56.0779 9.37733C56.2837 9.37733 56.464 9.33796 56.6215 9.25795C56.779 9.17794 56.9009 9.06618 56.9898 8.92013C57.0774 8.77534 57.1206 8.60643 57.1206 8.41593C57.1206 8.17082 57.0431 7.99175 56.8882 7.87745C56.7333 7.76442 56.5072 7.70727 56.21 7.70727H55.5991V9.37733H56.0779Z" fill="black"/>
<path d="M59.1399 7.06592H62.0178L61.9365 7.76061H59.982V9.10682H61.8247V9.75833H59.982V11.2493H62.0406L61.9695 11.9516H59.1387V7.06592H59.1399Z" fill="black"/>
<path d="M65.1484 7.06592H65.9917V11.9516H65.1484V7.06592Z" fill="black"/>
<path d="M68.2221 7.77077H66.707L66.782 7.06592H70.5856L70.5069 7.77077H69.0667V11.9516H68.2234V7.77077H68.2221Z" fill="black"/>
<path d="M74.2469 11.713C73.8888 11.5085 73.6157 11.2202 73.4277 10.8507C73.2385 10.4811 73.1445 10.0506 73.1445 9.56033C73.1445 9.04471 73.2461 8.59513 73.4468 8.20905C73.6475 7.82296 73.9383 7.52578 74.318 7.31496C74.6965 7.10414 75.1435 7 75.6591 7C76.1748 7 76.5761 7.1016 76.9317 7.3048C77.2873 7.508 77.5578 7.79502 77.7445 8.16332C77.9312 8.5329 78.0252 8.95962 78.0252 9.44603C78.0252 9.97054 77.9236 10.4265 77.7204 10.8126C77.5172 11.1999 77.2263 11.4971 76.8491 11.7066C76.472 11.9162 76.03 12.0203 75.522 12.0203C75.014 12.0203 74.6076 11.9175 74.2494 11.713H74.2469ZM76.4338 11.1135C76.6701 10.9548 76.8466 10.7364 76.9634 10.4595C77.0803 10.1814 77.1387 9.86386 77.1387 9.50572C77.1387 9.14758 77.0866 8.84151 76.9838 8.56719C76.8796 8.29287 76.7145 8.07442 76.4885 7.91059C76.2611 7.74803 75.969 7.66548 75.6109 7.66548C75.2527 7.66548 74.9784 7.74803 74.7397 7.91313C74.5009 8.07823 74.3218 8.30049 74.2037 8.57735C74.0843 8.85548 74.0246 9.16155 74.0246 9.49683C74.0246 9.84989 74.0805 10.1661 74.1936 10.4455C74.3053 10.7249 74.478 10.9446 74.7092 11.1072C74.9403 11.2685 75.2273 11.3498 75.5702 11.3498C75.9131 11.3498 76.1976 11.271 76.4338 11.1123V11.1135Z" fill="black"/>
<path d="M78.9642 7.06592H79.9332L82.3487 10.8518C82.3284 10.4924 82.3182 10.1597 82.3182 9.85612V7.06592H83.1006V11.9516H82.162L79.7084 8.10478C79.7325 8.54166 79.7452 8.92775 79.7452 9.26557V11.9516H78.9629V7.06592H78.9642Z" fill="black"/>
<path fill-rule="evenodd" clip-rule="evenodd" d="M21.8902 7.02686H12.877C8.63134 7.02686 7.07812 8.58007 7.07812 12.8257V21.8389C7.07812 26.0846 8.63134 27.6378 12.877 27.6378H21.8877C26.1333 27.6378 27.689 26.0846 27.689 21.8389V12.8257C27.689 8.58007 26.1358 7.02686 21.8902 7.02686Z" fill="#C8102E"/>
<path d="M11.1588 17.3343H11.7049V20.0292H11.1588V18.9345H9.92433V20.0292H9.37695V17.3343H9.92433V18.4214H11.1588V17.3343ZM14.2385 18.8773C14.2385 19.3155 14.0214 19.5492 13.6264 19.5492C13.2314 19.5492 13.0104 19.3079 13.0104 18.8583V17.3355H12.4631V18.8761C12.4631 19.6343 12.8847 20.0686 13.6188 20.0686C14.3528 20.0686 14.7859 19.6254 14.7859 18.8532V17.333H14.2398V18.8761L14.2385 18.8773ZM20.5581 19.1885L19.9459 17.3355H19.5002L18.888 19.1885L18.2924 17.3368H17.7107L18.6505 20.0305H19.1027L19.7161 18.2614L20.3282 20.0305H20.7841L21.7214 17.3368H21.155L20.5581 19.1885ZM22.7019 18.871H23.6963V18.3808H22.7019V17.8296H24.1458V17.3381H22.1634V20.0292H24.1979V19.5377H22.7019V18.871ZM24.8494 20.0267H25.3892V17.3355H24.8494V20.0267ZM15.8667 19.4679L15.6216 20.0292H15.0628L16.2502 17.3355H16.7328L17.9152 20.0292H17.3424L17.0999 19.4679H15.8667ZM16.0699 18.9815H16.8967L16.4826 18.0175L16.0712 18.9815H16.0699Z" fill="white"/>
<path d="M17.3834 13.9037C15.4911 13.9037 13.9531 12.3645 13.9531 10.4722H14.4383C14.4383 12.0965 15.7603 13.4186 17.3847 13.4186C19.009 13.4186 20.3311 12.0965 20.3311 10.4722H20.8162C20.8162 12.3645 19.277 13.9037 17.3847 13.9037H17.3834Z" fill="white"/>
</svg>
