<svg xmlns="http://www.w3.org/2000/svg" xml:space="preserve" style="enable-background:new 0 0 108 37" viewBox="0 0 108 37"><path d="M99.8 1H8.6h91.2zm0 0h.6V.5m-.6.5h.1V.5h.5m0 0H101.3c.6 0 1.2.1 1.8.2m-2.7-.2V1H101.3c.6 0 1.2.1 1.7.2m0-.5-.1.5m.1-.5c.6.1 1.2.3 1.7.6L103 .7zm-.1.5c.5.1 1.1.3 1.6.5m-1.6-.5 1.6.5m0 0c1 .5 1.8 1.3 2.3 2.3.2.5.4 1 .5 1.6.1.6.1 1.1.2 1.7V29.7c0 .6-.1 1.2-.2 1.7s-.3 1.1-.5 1.6c-.3.5-.6.9-1 1.3s-.8.7-1.3 1c-.5.3-1 .4-1.6.5-.6.1-1.1.1-1.7.2H6.8c-.6 0-1.2-.1-1.7-.2s-1.1-.3-1.6-.5-.9-.6-1.3-1-.7-.8-1-1.3c-.3-.5-.4-1-.5-1.6-.1-.6-.1-1.1-.2-1.7V7.3c0-.6.1-1.2.2-1.7.1-.6.2-1.1.5-1.6.2-.5.6-.9 1-1.3s.8-.7 1.3-1c.5-.3 1-.4 1.6-.5.5-.1 1.1-.2 1.7-.2H7l97.5.7zM.7 33.2c.3.5.6 1 1.1 1.5L.7 33.2zm99.7 3.3h.8-.8z" style="fill:#fff"/><path d="M100.4 37v-.5H6.8c-.6 0-1.2-.1-1.8-.2-.6-.1-1.2-.3-1.7-.6s-1-.6-1.4-1l-.4.3c-.5-.5-.9-1-1.2-1.6l.4-.3c-.3-.5-.4-1.1-.5-1.7-.1-.5-.2-1.1-.2-1.7V7.3c0-.6.1-1.2.2-1.8.1-.6.3-1.2.6-1.7s.6-1 1.1-1.5c.4-.4.9-.8 1.5-1.1.4-.2 1-.4 1.6-.5C5.6.6 6.2.5 6.8.5h92.6V0h1v.5V0h.8c.6 0 1.3.1 1.9.2.6.1 1.3.3 1.9.6l-.2.5c1.1.6 1.9 1.4 2.5 2.5.3.5.5 1.1.6 1.7.1.6.2 1.2.2 1.8V29.7c0 .6-.1 1.2-.2 1.8-.1.6-.3 1.2-.6 1.7s-.6 1-1.1 1.5c-.4.4-.9.8-1.5 1.1-.5.3-1.1.5-1.7.6-.6.1-1.2.2-1.8.2v.5c-.3-.1-.5-.1-.8-.1zM7 1.5h-.2c-.6 0-1.1.1-1.7.1-.5.1-1 .2-1.4.5L2.5 3l-.9 1.2c-.2.5-.4.9-.4 1.4-.1.6-.2 1.1-.2 1.7V29.7c0 .6.1 1.1.1 1.7.1.5.2 1 .5 1.4.2.4.5.8.9 1.2.4.4.8.7 1.2.9.5.2.9.4 1.4.5.5.1 1.1.1 1.7.1H101.2c.6 0 1.1-.1 1.7-.1.5-.1 1-.2 1.4-.5.4-.2.8-.5 1.2-.9.4-.4.7-.8.9-1.2.2-.4.4-.9.5-1.4.1-.5.1-1.1.2-1.7V7.3c0-.5-.1-1.1-.2-1.6s-.2-1-.5-1.4c-.4-.9-1.1-1.6-2-2L7 1.5z" style="fill:#ebf2f9"/><path d="M22.6 18.5c0-.8.2-1.6.6-2.2.4-.7.9-1.3 1.6-1.7-.4-.6-1-1.1-1.6-1.5-.7-.4-1.4-.5-2.1-.6-1.6-.2-3.1.9-3.9.9-.8 0-2.1-.9-3.4-.9-.9 0-1.7.3-2.4.7-.7.4-1.3 1.1-1.8 1.8-1.8 3.1-.5 7.8 1.3 10.3.9 1.2 1.9 2.6 3.2 2.6 1.3-.1 1.8-.8 3.4-.8 1.6 0 2 .8 3.4.8s2.3-1.2 3.1-2.5c.6-.9 1.1-1.9 1.4-2.9-.8-.3-1.5-.9-2-1.7-.6-.6-.8-1.5-.8-2.3zM20 10.9c.8-.9 1.1-2.1 1-3.3-1.2.1-2.2.7-3 1.6-.4.4-.7.9-.9 1.5-.2.5-.3 1.1-.2 1.7.6 0 1.2-.1 1.7-.4.6-.3 1-.7 1.4-1.1zM38.2 25h-4.3l-1 3h-1.8l4-11.2H37L41 28h-1.8l-1-3zm-3.9-1.4h3.4L36 18.7l-1.7 4.9zM49.8 23.9c0 2.5-1.4 4.2-3.4 4.2-.5 0-1-.1-1.5-.3-.5-.3-.8-.6-1.1-1.1v4h-1.7V19.9h1.6v1.4c.3-.5.6-.8 1.1-1.1.5-.3 1-.4 1.5-.4 2.1 0 3.5 1.6 3.5 4.1zm-1.7 0c0-1.7-.9-2.7-2.2-2.7-1.3 0-2.1 1.1-2.1 2.7s.9 2.7 2.1 2.7c1.3.1 2.2-1 2.2-2.7zM58.8 23.9c0 2.5-1.4 4.2-3.4 4.2-.5 0-1-.1-1.5-.3-.5-.3-.8-.6-1.1-1.1v4h-1.7V19.9h1.6v1.4c.3-.5.6-.8 1.1-1.1.5-.3 1-.4 1.5-.4 2.1 0 3.5 1.6 3.5 4.1zm-1.7 0c0-1.7-.9-2.7-2.2-2.7-1.3 0-2.1 1.1-2.1 2.7s.9 2.7 2.1 2.7c1.3.1 2.2-1 2.2-2.7zM64.7 24.9c.1 1.1 1.2 1.8 2.7 1.8 1.4 0 2.4-.7 2.4-1.7 0-.9-.6-1.4-2.1-1.7l-1.5-.3c-2.1-.5-3-1.5-3-3 0-1.9 1.7-3.3 4.1-3.3 2.4 0 4 1.3 4 3.3h-1.7c-.1-1.1-1-1.8-2.4-1.8s-2.3.7-2.3 1.7c0 .8.6 1.3 2 1.6l1.2.3c2.3.5 3.3 1.5 3.3 3.1 0 2.1-1.7 3.4-4.3 3.4-2.5 0-4.2-1.3-4.3-3.3l1.9-.1zM75.2 17.9v1.9h1.6v1.3h-1.6v4.5c0 .7.3 1 1 1h.6V28c-.3.1-.6.1-.9.1-1.7 0-2.3-.6-2.3-2.2v-4.7h-1.2v-1.3h1.2V18h1.6zM77.7 23.9c0-2.6 1.5-4.2 3.9-4.2s3.9 1.6 3.9 4.2-1.5 4.2-3.9 4.2-3.9-1.6-3.9-4.2zm6 0c0-1.8-.8-2.8-2.2-2.8s-2.2 1-2.2 2.8c0 1.8.8 2.8 2.2 2.8s2.2-1 2.2-2.8zM86.8 19.9h1.6v1.4c.1-.4.4-.8.7-1.1.4-.3.8-.4 1.2-.4.2 0 .4 0 .6.1v1.6c-.2-.1-.5-.1-.8-.1-.2 0-.5 0-.7.1-.2.1-.4.2-.6.4s-.3.4-.4.6c-.1.2-.1.5-.1.7V28h-1.7v-8.1zM98.7 25.6c-.2 1.5-1.7 2.5-3.5 2.5-2.4 0-3.9-1.6-3.9-4.1 0-2.6 1.5-4.2 3.8-4.2s3.7 1.6 3.7 4v.6H93v.1c0 .3 0 .6.1.9.1.3.3.5.5.8s.5.4.7.5c.3.1.6.2.9.2.4 0 .8-.1 1.1-.3.3-.2.6-.5.8-.9h1.6zm-5.6-2.4h4.1c0-.3 0-.5-.1-.8-.1-.3-.2-.5-.4-.7-.2-.2-.4-.3-.7-.5-.3-.1-.5-.2-.8-.1-.3 0-.5.1-.8.2-.3.1-.5.3-.7.4-.2.2-.3.4-.5.7-.1.2-.2.5-.1.8zM34.1 8.4c.4 0 .7 0 1 .2.3.1.6.3.9.6.2.3.4.6.5.9.1.3.1.7.1 1 0 1.7-.9 2.7-2.5 2.7h-1.9V8.4h1.9zM33 13h1c.3 0 .5 0 .7-.1.2-.1.4-.2.6-.4.2-.2.3-.4.4-.6.1-.2.1-.5.1-.7 0-.2 0-.5-.1-.7-.1-.2-.2-.5-.4-.6-.2-.2-.4-.3-.6-.4-.2-.1-.5-.1-.7-.1h-1V13zM37.6 11.7c0-.3 0-.5.1-.8.1-.3.2-.5.4-.7.2-.2.4-.4.6-.5.2-.1.5-.2.8-.2s.5.1.8.2c.2.1.5.3.6.5.2.2.3.4.4.7.1.3.1.5.1.8 0 .3 0 .5-.1.8-.1.3-.2.5-.4.7-.2.2-.4.4-.6.5-.2.1-.5.2-.8.2s-.5-.1-.8-.2c-.2-.1-.5-.3-.6-.5-.2-.2-.3-.4-.4-.7s-.1-.5-.1-.8zm3 0c0-.9-.4-1.4-1.1-1.4-.7 0-1.1.5-1.1 1.4 0 .9.4 1.4 1.1 1.4.7 0 1.1-.5 1.1-1.4zM46.5 13.8h-.8l-.8-3h-.1l-.8 3h-.8L42 9.7h.8l.7 3.1h.1l.8-3.1h.8l.8 3.1h.1l.7-3.1h.8l-1.1 4.1zM48.6 9.7h.8v.6h.1c.1-.2.3-.4.5-.6.2-.1.5-.2.7-.2.2 0 .4 0 .6.1.2.1.4.2.5.3.1.1.2.3.3.5.1.2.1.4 0 .6v2.6h-.8v-2.4c0-.7-.3-1-.9-1-.1 0-.3 0-.4.1-.1.1-.2.1-.3.2-.1.1-.2.2-.2.3 0 .1-.1.3 0 .4v2.4h-.8V9.7zM53.3 8.1h.8v5.7h-.8V8.1zM55.2 11.7c0-.3 0-.5.1-.8.1-.3.2-.5.4-.7.2-.2.4-.4.6-.5.2-.1.5-.2.8-.2.3 0 .5.1.8.2.2.1.5.3.6.5.2.2.3.4.4.7.1.3.1.5.1.8 0 .3 0 .5-.1.8-.1.3-.2.5-.4.7-.2.2-.4.4-.6.5s-.5.2-.8.2c-.3 0-.5-.1-.8-.2s-.5-.3-.6-.5c-.2-.2-.3-.4-.4-.7 0-.2-.1-.5-.1-.8zm3.1 0c0-.9-.4-1.4-1.1-1.4-.7 0-1.1.5-1.1 1.4 0 .9.4 1.4 1.1 1.4.7 0 1.1-.5 1.1-1.4zM59.9 12.6c0-.7.5-1.2 1.5-1.2l1.1-.1V11c0-.4-.3-.7-.8-.7-.4 0-.8.2-.8.5h-.8c.1-.7.7-1.1 1.7-1.1s1.6.5 1.6 1.4v2.8h-.8v-.6h-.1c-.1.2-.3.4-.5.5-.2.1-.5.2-.7.2-.2 0-.3 0-.5-.1s-.3-.1-.4-.3c-.1-.1-.2-.3-.3-.4-.1-.2-.2-.4-.2-.6zm2.6-.3V12l-1 .1c-.6 0-.8.2-.8.6 0 .4.3.6.8.6h.4c.1 0 .2-.1.3-.2.1-.1.2-.2.2-.3.1-.3.1-.4.1-.5zM64.4 11.7c0-1.3.7-2.1 1.7-2.1.3 0 .5 0 .7.2.2.1.4.3.5.5h.1V8.1h.8v5.7h-.8v-.6h-.1c-.1.2-.3.4-.5.5-.2.1-.5.2-.7.2-1.1-.1-1.7-.9-1.7-2.2zm.8 0c0 .9.4 1.4 1.1 1.4.7 0 1.1-.5 1.1-1.4 0-.8-.4-1.4-1.1-1.4-.7.1-1.1.6-1.1 1.4zM71.5 11.7c0-.3 0-.5.1-.8.1-.3.2-.5.4-.7.2-.2.4-.4.6-.5.2-.1.5-.2.8-.2.3 0 .5.1.8.2.2.1.5.3.6.5.2.2.3.4.4.7.1.3.1.5.1.8 0 .3 0 .5-.1.8-.1.3-.2.5-.4.7-.2.2-.4.4-.6.5s-.5.2-.8.2-.5-.1-.8-.2-.5-.3-.6-.5c-.2-.2-.3-.4-.4-.7-.1-.2-.1-.5-.1-.8zm3 0c0-.9-.4-1.4-1.1-1.4-.7 0-1.1.5-1.1 1.4 0 .9.4 1.4 1.1 1.4.7 0 1.1-.5 1.1-1.4zM76.4 9.7h.8v.6h.1c.1-.2.3-.4.5-.6.2-.1.5-.2.7-.2.2 0 .4 0 .6.1.2.1.4.2.5.3.1.1.2.3.3.5.1.2.1.4 0 .6v2.6h-.8v-2.4c0-.7-.3-1-.9-1-.1 0-.3 0-.4.1-.1.1-.2.1-.3.2-.1.1-.2.2-.2.3 0 .1-.1.3 0 .4v2.4h-.8V9.7zM84.4 8.7v1h.9v.7h-.9v2.1c0 .4.2.6.6.6h.3v.7h-.4c-.9 0-1.2-.3-1.2-1.1v-2.3H83v-.7h.6v-1h.8zM86.4 8.1h.8v2.2h.1c.1-.2.3-.4.5-.6.2-.1.5-.2.7-.2.2 0 .4 0 .6.1.2.1.3.2.5.3.1.1.2.3.3.5.1.2.1.4.1.6v2.6h-.8v-2.4c0-.6-.3-1-.9-1-.1 0-.3 0-.4.1-.1 0-.2.1-.3.2-.1.1-.2.2-.2.3 0 .1-.1.3-.1.4v2.4h-.8V8.1zM94.6 12.7c-.1.4-.3.7-.7.9s-.7.3-1.1.3c-.3 0-.5 0-.8-.2-.2-.1-.5-.3-.6-.5-.2-.2-.3-.4-.4-.7-.1-.3-.1-.5-.1-.8 0-.3 0-.5.1-.8.1-.3.2-.5.4-.7.2-.2.4-.4.6-.5.2-.1.5-.2.8-.2 1.1 0 1.8.8 1.8 2v.5h-2.9c0 .1 0 .3.1.4 0 .1.1.3.2.4.1.1.2.2.4.3.1.1.3.1.4.1.2 0 .4 0 .6-.1.2-.1.3-.2.4-.4h.8zm-2.9-1.3h2.1c0-.1 0-.3-.1-.4 0-.1-.1-.2-.2-.3-.1-.1-.2-.2-.3-.2-.1-.1-.3-.1-.4-.1-.1 0-.3 0-.4.1-.1.1-.2.1-.3.2-.1.1-.2.2-.2.3-.1.1-.2.2-.2.4z"/></svg>