<svg xmlns="http://www.w3.org/2000/svg" xml:space="preserve" style="enable-background:new 0 0 25.2 8.7" viewBox="0 0 25.2 8.7"><path d="M4.2 8.7c-.9 0-1.6-.2-2.3-.5C1.3 7.8.8 7.3.5 6.7.2 6 0 5.2 0 4.3S.2 2.7.5 2 1.3.9 1.9.5C2.6.2 3.3 0 4.2 0c.6 0 1.1.1 1.6.3.5.1.9.4 1.2.7l-.5 1.2c-.3-.3-.7-.5-1.1-.6-.3-.2-.7-.2-1.1-.2-.9 0-1.5.3-2 .8s-.7 1.2-.7 2.1.2 1.7.7 2.3c.5.5 1.1.8 2 .8.4 0 .8-.1 1.2-.2.3-.2.7-.4 1-.7L7 7.7c-.3.3-.7.6-1.2.7-.5.2-1 .3-1.6.3zm3.7-4.4c0-.9.2-1.7.5-2.3.3-.6.8-1.1 1.4-1.5a5.09 5.09 0 0 1 4.4 0c.6.4 1.1.9 1.4 1.5.3.6.5 1.4.5 2.3 0 .9-.2 1.7-.5 2.3-.3.6-.8 1.2-1.4 1.5-.6.4-1.3.5-2.2.5-.8 0-1.6-.2-2.2-.5-.6-.3-1-.8-1.4-1.5-.3-.6-.5-1.4-.5-2.3zm1.7 0c0 1 .2 1.7.6 2.2s1 .8 1.8.8 1.4-.3 1.8-.8.6-1.3.6-2.2c0-1-.2-1.7-.6-2.2-.4-.5-1-.8-1.8-.8s-1.4.3-1.8.8-.6 1.3-.6 2.2zm8.1 4.3V.1h3.1c1 0 1.8.2 2.4.5.7.3 1.2.8 1.5 1.4.3.6.5 1.4.5 2.3 0 .9-.2 1.6-.5 2.3s-.9 1.1-1.5 1.5c-.7.3-1.5.5-2.4.5h-3.1zm1.5-1.3h1.4c1 0 1.8-.2 2.3-.7s.7-1.2.7-2.2c0-1-.2-1.7-.7-2.2-.5-.5-1.3-.7-2.3-.7h-1.4v5.8z" style="fill:#031a32"/></svg>