<svg width="28" height="28" viewBox="0 0 28 28" fill="none" xmlns="http://www.w3.org/2000/svg">
<path d="M3.25391 8.63506V19.8669L13.9968 25.2387L24.7396 19.8669V8.63506L13.5085 3.26331L3.25391 8.63506Z" fill="#F2F8FD"/>
<path d="M14.0418 25.6094C13.6698 25.4139 13.2978 25.2208 12.9257 25.0253C12.0298 24.5565 11.1314 24.0877 10.2355 23.619C9.15485 23.0524 8.0742 22.4884 6.99102 21.9218C6.05462 21.4305 5.1157 20.9417 4.1793 20.4503C3.72629 20.2147 3.28087 19.9565 2.82027 19.7384C2.81267 19.7359 2.80761 19.7309 2.80255 19.7283C2.88607 19.8737 2.96958 20.0166 3.0531 20.162C3.0531 19.771 3.0531 19.3799 3.0531 18.9888C3.0531 18.0538 3.0531 17.1212 3.0531 16.1862C3.0531 15.0531 3.0531 13.92 3.0531 12.7844C3.0531 11.8092 3.0531 10.8316 3.0531 9.85639C3.0531 9.3826 3.07081 8.9063 3.0531 8.43251C3.0531 8.42499 3.0531 8.41997 3.0531 8.41245C2.80002 8.55785 2.54441 8.70074 2.29133 8.84614C2.66336 9.04167 3.03538 9.2347 3.40741 9.43023C4.30331 9.89901 5.20174 10.3678 6.09765 10.8391C7.1783 11.4056 8.25895 11.9722 9.34213 12.5362C10.2785 13.0276 11.2174 13.5189 12.1538 14.0077C12.6069 14.2434 13.0523 14.5016 13.5129 14.7197C13.5205 14.7222 13.5255 14.7272 13.5306 14.7297C13.4471 14.5843 13.3636 14.4414 13.28 14.296C13.28 14.6871 13.28 15.0781 13.28 15.4667C13.28 16.3993 13.28 17.3343 13.28 18.2669C13.28 19.3999 13.28 20.533 13.28 21.6661C13.28 22.6413 13.28 23.6165 13.28 24.5916C13.28 25.0654 13.2674 25.5417 13.28 26.0155C13.28 26.023 13.28 26.028 13.28 26.0356C13.28 26.2988 13.5129 26.5495 13.7862 26.5369C14.0595 26.5244 14.2924 26.3163 14.2924 26.0356C14.2924 25.6445 14.2924 25.2534 14.2924 24.8649C14.2924 23.9323 14.2924 22.9973 14.2924 22.0647C14.2924 20.9316 14.2924 19.7985 14.2924 18.6654C14.2924 17.6903 14.2924 16.7151 14.2924 15.74C14.2924 15.2662 14.305 14.7899 14.2924 14.3161C14.2924 14.3085 14.2924 14.3035 14.2924 14.296C14.2924 14.1255 14.1962 13.9451 14.0418 13.8623C13.6698 13.6668 13.2978 13.4738 12.9257 13.2782C12.0298 12.8095 11.1314 12.3407 10.2355 11.8694C9.15485 11.3028 8.0742 10.7363 6.99102 10.1723C6.05462 9.68091 5.1157 9.18957 4.1793 8.70074C3.72629 8.46259 3.27581 8.21942 2.82027 7.9888C2.81267 7.98629 2.80761 7.98127 2.80255 7.97877C2.46848 7.80329 2.04078 8.01888 2.04078 8.41245C2.04078 8.80352 2.04078 9.19459 2.04078 9.58565C2.04078 10.5207 2.04078 11.4533 2.04078 12.3883C2.04078 13.5214 2.04078 14.6545 2.04078 15.7901C2.04078 16.7653 2.04078 17.7429 2.04078 18.7181C2.04078 19.1919 2.02813 19.6682 2.04078 20.142C2.04078 20.1495 2.04078 20.1545 2.04078 20.162C2.04078 20.3325 2.13695 20.513 2.29133 20.5957C2.66336 20.7912 3.03538 20.9843 3.40741 21.1798C4.30331 21.6486 5.20174 22.1174 6.09765 22.5861C7.1783 23.1527 8.25895 23.7167 9.34213 24.2833C10.2785 24.7746 11.2174 25.2635 12.1538 25.7548C12.6069 25.9929 13.0573 26.2361 13.5129 26.4667C13.5205 26.4692 13.5255 26.4743 13.5306 26.4768C13.7634 26.5996 14.0924 26.5445 14.224 26.2963C14.348 26.0631 14.2924 25.7398 14.0418 25.6094Z" fill="#1976D2" stroke="#1976D2" stroke-width="0.585992"/>
<path d="M24.7689 19.7313C24.3968 19.9268 24.0248 20.1198 23.6528 20.3154C22.7569 20.7841 21.8585 21.2529 20.9626 21.7217C19.8819 22.2882 18.8013 22.8523 17.7181 23.4188C16.7817 23.9102 15.8428 24.399 14.9064 24.8904C14.4534 25.126 13.9877 25.3491 13.5473 25.6023C13.5423 25.6048 13.5347 25.6098 13.5296 25.6123C13.7827 25.7577 14.0383 25.9006 14.2914 26.046C14.2914 25.6549 14.2914 25.2639 14.2914 24.8753C14.2914 23.9428 14.2914 23.0077 14.2914 22.0752C14.2914 20.9421 14.2914 19.809 14.2914 18.6759C14.2914 17.7007 14.2914 16.7256 14.2914 15.7504C14.2914 15.2766 14.3116 14.8003 14.2914 14.3265C14.2914 14.319 14.2914 14.314 14.2914 14.3065C14.2079 14.4518 14.1243 14.5947 14.0408 14.7401C14.4129 14.5446 14.7849 14.3516 15.1569 14.156C16.0528 13.6873 16.9512 13.2185 17.8471 12.7472C18.9278 12.1806 20.0084 11.6141 21.0916 11.0501C22.028 10.5587 22.9669 10.0674 23.9033 9.57854C24.3564 9.3429 24.822 9.11979 25.2624 8.8666C25.2674 8.86409 25.275 8.85908 25.2801 8.85657C25.027 8.71118 24.7714 8.56829 24.5183 8.42289C24.5183 8.81396 24.5183 9.20502 24.5183 9.59609C24.5183 10.5311 24.5183 11.4637 24.5183 12.3987C24.5183 13.5318 24.5183 14.6649 24.5183 15.8005C24.5183 16.7757 24.5183 17.7534 24.5183 18.7285C24.5183 19.2023 24.5057 19.6786 24.5183 20.1524C24.5183 20.1599 24.5183 20.1649 24.5183 20.1725C24.5183 20.4357 24.7512 20.6864 25.0245 20.6738C25.2978 20.6613 25.5306 20.4532 25.5306 20.1725C25.5306 19.7814 25.5306 19.3903 25.5306 18.9993C25.5306 18.0642 25.5306 17.1317 25.5306 16.1966C25.5306 15.0635 25.5306 13.9304 25.5306 12.7948C25.5306 11.8197 25.5306 10.842 25.5306 9.86683C25.5306 9.39304 25.5433 8.91674 25.5306 8.44294C25.5306 8.43542 25.5306 8.43041 25.5306 8.42289C25.5306 8.02931 25.1029 7.81373 24.7689 7.9892C24.3968 8.18474 24.0248 8.37776 23.6528 8.5733C22.7569 9.04208 21.8585 9.51086 20.9626 9.98215C19.8819 10.5487 18.8013 11.1152 17.7181 11.6793C16.7817 12.1706 15.8428 12.662 14.9064 13.1508C14.4534 13.3889 13.9902 13.6121 13.5473 13.8627C13.5423 13.8652 13.5347 13.8703 13.5296 13.8728C13.3727 13.9555 13.2791 14.136 13.2791 14.3065C13.2791 14.6975 13.2791 15.0886 13.2791 15.4771C13.2791 16.4097 13.2791 17.3447 13.2791 18.2773C13.2791 19.4104 13.2791 20.5435 13.2791 21.6766C13.2791 22.6517 13.2791 23.6269 13.2791 24.6021C13.2791 25.0759 13.2664 25.5522 13.2791 26.026C13.2791 26.0335 13.2791 26.0385 13.2791 26.046C13.2791 26.4396 13.7068 26.6552 14.0408 26.4797C14.4129 26.2842 14.7849 26.0911 15.1569 25.8956C16.0528 25.4268 16.9512 24.958 17.8471 24.4893C18.9278 23.9227 20.0084 23.3587 21.0916 22.7921C22.028 22.3008 22.9669 21.8119 23.9033 21.3206C24.3564 21.085 24.8195 20.8593 25.2624 20.6087C25.2674 20.6062 25.275 20.6011 25.2801 20.5986C25.5155 20.4758 25.6066 20.1324 25.4623 19.9118C25.3079 19.6761 25.0194 19.6009 24.7689 19.7313Z" fill="#1976D2" stroke="#1976D2" stroke-width="0.585992"/>
<path d="M24.7708 7.98372C24.3988 8.17925 24.0267 8.37228 23.6547 8.56781C22.7588 9.03659 21.8604 9.50537 20.9645 9.97666C19.8838 10.5432 18.8032 11.1098 17.72 11.6738C16.7836 12.1651 15.8447 12.6565 14.9083 13.1453C14.4553 13.381 13.9921 13.6041 13.5492 13.8573C13.5442 13.8598 13.5366 13.8648 13.5315 13.8673C13.7011 13.8673 13.8732 13.8673 14.0427 13.8673C13.6707 13.6717 13.2987 13.4787 12.9267 13.2832C12.0308 12.8144 11.1323 12.3456 10.2364 11.8743C9.15577 11.3078 8.07512 10.7412 6.99194 10.1772C6.05555 9.68586 5.11662 9.19452 4.18023 8.70569C3.72721 8.47004 3.28179 8.21184 2.82119 7.99374C2.8136 7.99124 2.80853 7.98622 2.80347 7.98372C2.80347 8.272 2.80347 8.56029 2.80347 8.84858C3.1755 8.65304 3.54753 8.46002 3.91955 8.26448C4.81546 7.7957 5.71389 7.32692 6.60979 6.85814C7.69044 6.2916 8.77109 5.72756 9.85427 5.16101C10.7907 4.66967 11.7296 4.18083 12.666 3.68949C13.119 3.45385 13.5821 3.23074 14.025 2.97755C14.0301 2.97504 14.0377 2.97003 14.0427 2.96752C13.8732 2.96752 13.7011 2.96752 13.5315 2.96752C13.9035 3.16305 14.2756 3.35608 14.6476 3.55161C15.5435 4.02039 16.4419 4.48917 17.3378 4.95795C18.4185 5.5245 19.4991 6.08854 20.5823 6.65509C21.5187 7.14643 22.4576 7.63526 23.394 8.12661C23.847 8.36476 24.2975 8.60792 24.7531 8.83855C24.7607 8.84106 24.7657 8.84607 24.7708 8.84858C25.0036 8.97141 25.3326 8.91626 25.4642 8.66808C25.5882 8.43745 25.5326 8.11407 25.282 7.98121C24.9049 7.78317 24.5304 7.58763 24.1533 7.38959C23.2548 6.91831 22.3564 6.44953 21.4554 5.97824C20.3697 5.41169 19.2866 4.84264 18.2008 4.27609C17.267 3.78726 16.3331 3.29842 15.3967 2.80959C14.9513 2.57645 14.5084 2.33078 14.0554 2.10767C13.7821 1.97481 13.5897 2.06756 13.3645 2.18538C13.1317 2.30822 12.8988 2.42855 12.6685 2.55138C11.8232 2.99259 10.9805 3.4363 10.1352 3.8775C9.05201 4.44405 7.96883 5.0106 6.88565 5.57714C5.91129 6.08603 4.93694 6.59743 3.96258 7.10632C3.42858 7.38458 2.89711 7.66284 2.36311 7.94361C2.33781 7.95614 2.3125 7.96867 2.28972 7.98372C1.96072 8.15669 1.96072 8.67811 2.28972 8.84858C2.66681 9.04662 3.04137 9.24215 3.41846 9.44019C4.31689 9.91148 5.21532 10.3803 6.11629 10.8515C7.202 11.4206 8.28518 11.9871 9.37089 12.5562C10.3048 13.045 11.2386 13.5339 12.175 14.0227C12.6204 14.2558 13.0633 14.504 13.5163 14.7246C13.7897 14.8575 13.982 14.7647 14.2072 14.6469C14.4401 14.5241 14.6729 14.4037 14.9032 14.2809C15.7485 13.8397 16.5913 13.396 17.4365 12.9548C18.5197 12.3882 19.6029 11.8217 20.6861 11.2551C21.6604 10.7438 22.6348 10.2349 23.6092 9.72346C24.1432 9.44521 24.6746 9.16444 25.2086 8.88618C25.2339 8.87364 25.2592 8.86111 25.282 8.84607C25.5174 8.72323 25.6085 8.3798 25.4642 8.15919C25.3099 7.92606 25.0213 7.85085 24.7708 7.98372Z" fill="#1976D2" stroke="#1976D2" stroke-width="0.585992"/>
<path d="M8.43451 11.7944C8.80654 11.5988 9.17857 11.4058 9.55059 11.2103C10.4465 10.7415 11.3449 10.2727 12.2408 9.80143C13.3215 9.23488 14.4021 8.66833 15.4853 8.10429C16.4217 7.61295 17.3606 7.12161 18.297 6.63278C18.75 6.39463 19.2132 6.17152 19.6561 5.92083C19.6611 5.91833 19.6687 5.91331 19.6738 5.91081C19.9091 5.78797 20.0003 5.44453 19.856 5.22393C19.7016 4.98829 19.4131 4.91308 19.1626 5.04344C18.7905 5.23897 18.4185 5.432 18.0465 5.62753C17.1506 6.09631 16.2521 6.56509 15.3562 7.03638C14.2756 7.60293 13.1949 8.16947 12.1118 8.73351C11.1754 9.22485 10.2364 9.7162 9.30005 10.205C8.84703 10.4432 8.3839 10.6663 7.94101 10.917C7.93594 10.9195 7.92835 10.9245 7.92329 10.927C7.68793 11.0498 7.59682 11.3933 7.74107 11.6139C7.89545 11.852 8.18396 11.9272 8.43451 11.7944Z" fill="#1976D2" stroke="#1976D2" stroke-width="0.585992"/>
</svg>
