<svg width="28" height="28" viewBox="0 0 28 28" fill="none" xmlns="http://www.w3.org/2000/svg">
<path d="M2.9 9.73V5.53H25.1V9.73H2.9Z" fill="#F2F8FD" stroke="#1976D2" stroke-width="1.8"/>
<path d="M4.40234 9.7901H23.6023V23.5901C23.6023 23.9215 23.3337 24.1901 23.0023 24.1901H5.00234C4.67097 24.1901 4.40234 23.9215 4.40234 23.5901V9.7901Z" fill="#F2F8FD"/>
<path d="M4.40234 9.7901V8.8901C3.90529 8.8901 3.50234 9.29304 3.50234 9.7901H4.40234ZM23.6023 9.7901H24.5023C24.5023 9.29304 24.0994 8.8901 23.6023 8.8901V9.7901ZM4.40234 10.6901H23.6023V8.8901H4.40234V10.6901ZM22.7023 9.7901V23.5901H24.5023V9.7901H22.7023ZM23.0023 23.2901H5.00234V25.0901H23.0023V23.2901ZM5.30234 23.5901V9.7901H3.50234V23.5901H5.30234ZM5.00234 23.2901C5.16803 23.2901 5.30234 23.4244 5.30234 23.5901H3.50234C3.50234 24.4185 4.17392 25.0901 5.00234 25.0901V23.2901ZM22.7023 23.5901C22.7023 23.4244 22.8367 23.2901 23.0023 23.2901V25.0901C23.8308 25.0901 24.5023 24.4185 24.5023 23.5901H22.7023Z" fill="#1976D2"/>
<path fill-rule="evenodd" clip-rule="evenodd" d="M14.9278 13.7401C14.9278 13.2762 14.5517 12.9001 14.0878 12.9001C13.6238 12.9001 13.2478 13.2762 13.2478 13.7401V15.9683H11.0158C10.5519 15.9683 10.1758 16.3444 10.1758 16.8083C10.1758 17.2722 10.5519 17.6483 11.0158 17.6483H13.2478V19.8783C13.2478 20.3422 13.6238 20.7183 14.0878 20.7183C14.5517 20.7183 14.9278 20.3422 14.9278 19.8783V17.6483H17.154C17.6179 17.6483 17.994 17.2722 17.994 16.8083C17.994 16.3444 17.6179 15.9683 17.154 15.9683H14.9278V13.7401Z" fill="#1976D2"/>
</svg>
