<svg width="28" height="28" viewBox="0 0 28 28" fill="none" xmlns="http://www.w3.org/2000/svg">
<path d="M18.7901 4.02045H20.1235C21.5993 4.02045 22.7903 5.21146 22.7903 6.68727V23.3226C22.7903 24.7984 21.5993 25.9894 20.1235 25.9894H6.81526C5.33945 25.9894 4.14844 24.7984 4.14844 23.3226V6.68727C4.14844 5.21146 5.33945 4.02045 6.81526 4.02045H9.48209" fill="#F2F8FD"/>
<path d="M18.7901 4.02045H20.1235C21.5993 4.02045 22.7903 5.21146 22.7903 6.68727V23.3226C22.7903 24.7984 21.5993 25.9894 20.1235 25.9894H6.81526C5.33945 25.9894 4.14844 24.7984 4.14844 23.3226V6.68727C4.14844 5.21146 5.33945 4.02045 6.81526 4.02045H9.48209" stroke="#1976D2" stroke-width="1.77658" stroke-linecap="round" stroke-linejoin="round"/>
<rect x="9.98047" y="2.00116" width="7" height="4" rx="1" fill="#F7F9FA"/>
<path fill-rule="evenodd" clip-rule="evenodd" d="M14.4388 11.214C14.4388 10.6778 14.0041 10.2431 13.4679 10.2431C12.9317 10.2431 12.497 10.6778 12.497 11.214V12.2355H11.4748C10.9386 12.2355 10.5039 12.6702 10.5039 13.2065C10.5039 13.7427 10.9386 14.1774 11.4748 14.1774H12.497V15.2013C12.497 15.7376 12.9317 16.1723 13.4679 16.1723C14.0041 16.1723 14.4388 15.7376 14.4388 15.2013V14.1774H15.4621C15.9984 14.1774 16.4331 13.7427 16.4331 13.2065C16.4331 12.6702 15.9984 12.2355 15.4621 12.2355H14.4388V11.214Z" fill="#1976D2"/>
<path d="M16.158 6.01434H10.8373C10.0994 6.01434 9.50391 5.40589 9.50391 4.66798V3.33457C9.50391 2.59666 10.0994 2.00116 10.8373 2.00116H16.158C16.8959 2.00116 17.4914 2.58372 17.4914 3.32163V4.65504C17.4785 5.39295 16.883 5.98845 16.158 5.98845V6.01434Z" stroke="#1976D2" stroke-width="1.77658" stroke-linecap="round" stroke-linejoin="round"/>
<path d="M8.16797 20.3893H18.8094" stroke="#1976D2" stroke-width="1.77658" stroke-linecap="round" stroke-linejoin="round"/>
</svg>
