<svg xmlns="http://www.w3.org/2000/svg" xml:space="preserve" id="Layer_1" x="0" y="0" style="enable-background:new 0 0 10 15.4" version="1.1" viewBox="0 0 10 15.4"><style>.st0{fill:#31363c}</style><path d="M7.7 9.5h-.3c-.1-.3-.5-.5-.9-.5h-.3c-.2-.2-.5-.4-.8-.4h-.2v-.8c0-.5-.4-.9-1-.9-.5 0-1 .4-1 .9v2.7l-.3.2c-.3.2-.5.6-.6 1 0 .4.1.8.3 1.1l1.1 1.3v.5c0 .4.3.8.8.8h2.8c.4 0 .8-.3.8-.8v-.5c.4-.4.5-1 .5-1.5v-2c0-.7-.4-1.1-.9-1.1zm-1.6-.3zm1.7 3.2c0 .4-.2.8-.4 1.2-.1.1-.1.2-.1.3v.5H4.6v-.5c0-.1 0-.2-.1-.2l-1.2-1.4c-.1-.1-.2-.3-.1-.5v-.2.2c0 .2.2.4.4.4s.4-.2.4-.4v-4c0-.1 0-.1.1-.1s.1.1.1.1V11c0 .2.2.4.4.4s.4-.2.4-.4V9.5c0-.1 0-.1.1-.1h.1c.1 0 .1.1.1.1V11c0 .2.2.4.4.4s.4-.2.4-.4V9.9c0-.1 0-.1.1-.1s.1.1.1.1V11c0 .2.2.4.4.4s.4-.2.4-.4v-.5c0-.1 0-.1.1-.1s.1.1.1.1v1.9h.5z" class="st0"/><path d="M.5 14c-.3 0-.5-.2-.5-.5V1.2C0 .5.5 0 1.2 0h7.6c.7 0 1.2.5 1.2 1.2v7.4c0 .3-.2.5-.5.5S9 8.9 9 8.6V1.2c0-.1-.1-.2-.2-.2H1.2c-.1 0-.2.1-.2.2v12.3c0 .3-.3.5-.5.5z" class="st0"/><path d="M3.9 2.5c0-.3.3-.5.5-.5h1c.3 0 .5.2.5.5s-.2.5-.5.5h-1c-.2 0-.5-.3-.5-.5z" class="st0"/></svg>